# Blender v2.82 (sub 7) OBJ File: 'Books.blend'
# www.blender.org
mtllib Books.mtl
o Books
v -0.405278 0.104644 2.160000
v -0.405278 0.104644 0.840000
v -0.405278 0.079070 2.160000
v -0.405278 0.079070 0.840000
v 0.539215 0.079070 0.840000
v 0.539215 0.079070 2.160000
v 0.539215 0.079070 2.128135
v -0.382746 0.079070 2.137468
v 0.539215 0.079070 0.871865
v -0.382746 0.079070 0.862532
v 0.553166 0.104644 0.840000
v 0.553166 0.104644 2.160000
v 1.594722 0.125367 2.275000
v 1.594722 0.125367 0.625000
v 1.594722 0.099792 2.275000
v 1.594722 0.099792 0.625000
v 2.539215 0.099792 0.625000
v 2.539215 0.099792 2.275000
v 2.539215 0.099792 2.243135
v 1.617254 0.099792 2.252468
v 2.539215 0.099792 0.656865
v 1.617254 0.099792 0.647532
v 2.553166 0.125367 0.625000
v 2.553166 0.125367 2.275000
v -2.617500 0.073561 2.275000
v -2.617500 0.073561 0.625000
v -2.617500 0.047986 2.275000
v -2.617500 0.047986 0.625000
v -1.453007 0.047986 0.625000
v -1.453007 0.047986 2.275000
v -1.453007 0.047986 2.243135
v -2.594969 0.047986 2.252468
v -1.453007 0.047986 0.656865
v -2.594969 0.047986 0.647532
v -1.439056 0.073561 0.625000
v -1.439056 0.073561 2.275000
v 1.594722 0.063929 -0.735000
v 1.594722 0.063929 -2.165000
v 1.594722 0.038354 -0.735000
v 1.594722 0.038354 -2.165000
v 2.539215 0.038354 -2.165000
v 2.539215 0.038354 -0.735000
v 2.539215 0.038354 -0.766865
v 1.617254 0.038354 -0.757532
v 2.539215 0.038354 -2.133135
v 1.617254 0.038354 -2.142468
v 2.553166 0.063929 -2.165000
v 2.553166 0.063929 -0.735000
v -0.252661 0.054335 -0.840000
v -0.252661 0.054335 -2.160000
v -0.252661 0.028760 -0.840000
v -0.252661 0.028760 -2.160000
v 0.533622 0.028760 -2.160000
v 0.533622 0.028760 -0.840000
v 0.533622 0.028760 -0.871865
v -0.230129 0.028760 -0.862532
v 0.533622 0.028760 -2.128135
v -0.230129 0.028760 -2.137468
v 0.547573 0.054335 -2.160000
v 0.547573 0.054335 -0.840000
v -2.617500 0.106215 -0.725000
v -2.617500 0.106215 -2.375000
v -2.617500 0.080640 -0.725000
v -2.617500 0.080640 -2.375000
v -1.453007 0.080640 -2.375000
v -1.453007 0.080640 -0.725000
v -1.453007 0.080640 -0.756865
v -2.594969 0.080640 -0.747531
v -1.453007 0.080640 -2.343135
v -2.594969 0.080640 -2.352468
v -1.439056 0.106215 -2.375000
v -1.439056 0.106215 -0.725000
v -0.405278 -0.104644 2.160000
v -0.405278 -0.104644 0.840000
v -0.405278 -0.079070 2.160000
v -0.405278 -0.079070 0.840000
v 0.539215 -0.079070 0.840000
v 0.539215 -0.079070 2.160000
v 0.539215 -0.079070 2.128135
v -0.382746 -0.079070 2.137468
v 0.539215 -0.079070 0.871865
v -0.382746 -0.079070 0.862532
v 0.553166 -0.104644 0.840000
v 0.553166 -0.104644 2.160000
v 0.539215 0.000000 2.160000
v 0.539215 0.000000 0.840000
v 0.539215 0.000000 2.128135
v -0.382746 0.000000 2.137468
v 0.539215 0.000000 0.871865
v -0.382746 0.000000 0.862532
v 0.553166 0.000000 2.160000
v 0.553166 0.000000 0.840000
v 1.594722 -0.125367 2.275000
v 1.594722 -0.125367 0.625000
v 1.594722 -0.099792 2.275000
v 1.594722 -0.099792 0.625000
v 2.539215 -0.099792 0.625000
v 2.539215 -0.099792 2.275000
v 2.539215 -0.099792 2.243135
v 1.617254 -0.099792 2.252468
v 2.539215 -0.099792 0.656865
v 1.617254 -0.099792 0.647532
v 2.553166 -0.125367 0.625000
v 2.553166 -0.125367 2.275000
v 2.539215 0.000000 2.275000
v 2.539215 0.000000 0.625000
v 2.539215 0.000000 2.243135
v 1.617254 0.000000 2.252468
v 2.539215 0.000000 0.656865
v 1.617254 0.000000 0.647532
v 2.553166 0.000000 2.275000
v 2.553166 0.000000 0.625000
v -2.617500 -0.073561 2.275000
v -2.617500 -0.073561 0.625000
v -2.617500 -0.047986 2.275000
v -2.617500 -0.047986 0.625000
v -1.453007 -0.047986 0.625000
v -1.453007 -0.047986 2.275000
v -1.453007 -0.047986 2.243135
v -2.594969 -0.047986 2.252468
v -1.453007 -0.047986 0.656865
v -2.594969 -0.047986 0.647532
v -1.439056 -0.073561 0.625000
v -1.439056 -0.073561 2.275000
v -1.453007 0.000000 2.275000
v -1.453007 0.000000 0.625000
v -1.453007 0.000000 2.243135
v -2.594969 0.000000 2.252468
v -1.453007 0.000000 0.656865
v -2.594969 0.000000 0.647532
v -1.439056 0.000000 2.275000
v -1.439056 0.000000 0.625000
v 1.594722 -0.063929 -0.735000
v 1.594722 -0.063929 -2.165000
v 1.594722 -0.038354 -0.735000
v 1.594722 -0.038354 -2.165000
v 2.539215 -0.038354 -2.165000
v 2.539215 -0.038354 -0.735000
v 2.539215 -0.038354 -0.766865
v 1.617254 -0.038354 -0.757532
v 2.539215 -0.038354 -2.133135
v 1.617254 -0.038354 -2.142468
v 2.553166 -0.063929 -2.165000
v 2.553166 -0.063929 -0.735000
v 2.539215 0.000000 -0.735000
v 2.539215 0.000000 -2.165000
v 2.539215 0.000000 -0.766865
v 1.617254 0.000000 -0.757532
v 2.539215 0.000000 -2.133135
v 1.617254 0.000000 -2.142468
v 2.553166 0.000000 -0.735000
v 2.553166 0.000000 -2.165000
v -0.252661 -0.054335 -0.840000
v -0.252661 -0.054335 -2.160000
v -0.252661 -0.028760 -0.840000
v -0.252661 -0.028760 -2.160000
v 0.533622 -0.028760 -2.160000
v 0.533622 -0.028760 -0.840000
v 0.533622 -0.028760 -0.871865
v -0.230129 -0.028760 -0.862532
v 0.533622 -0.028760 -2.128135
v -0.230129 -0.028760 -2.137468
v 0.547573 -0.054335 -2.160000
v 0.547573 -0.054335 -0.840000
v 0.533622 0.000000 -0.840000
v 0.533622 0.000000 -2.160000
v 0.533622 0.000000 -0.871865
v -0.230129 0.000000 -0.862532
v 0.533622 0.000000 -2.128135
v -0.230129 0.000000 -2.137468
v 0.547573 0.000000 -0.840000
v 0.547573 0.000000 -2.160000
v -2.617500 -0.106215 -0.725000
v -2.617500 -0.106215 -2.375000
v -2.617500 -0.080640 -0.725000
v -2.617500 -0.080640 -2.375000
v -1.453007 -0.080640 -2.375000
v -1.453007 -0.080640 -0.725000
v -1.453007 -0.080640 -0.756865
v -2.594969 -0.080640 -0.747531
v -1.453007 -0.080640 -2.343135
v -2.594969 -0.080640 -2.352468
v -1.439056 -0.106215 -2.375000
v -1.439056 -0.106215 -0.725000
v -1.453007 0.000000 -0.725000
v -1.453007 0.000000 -2.375000
v -1.453007 0.000000 -0.756865
v -2.594969 0.000000 -0.747531
v -1.453007 0.000000 -2.343135
v -2.594969 0.000000 -2.352468
v -1.439056 0.000000 -0.725000
v -1.439056 0.000000 -2.375000
vt 0.508786 0.786095
vt 0.271902 0.786095
vt 0.271902 0.459850
vt 0.508786 0.459850
vt 0.267859 0.833438
vt 0.267859 0.813894
vt 0.271308 0.833438
vt 0.271902 0.792416
vt 0.505338 0.792416
vt 0.265581 0.459850
vt 0.265581 0.786095
vt 0.601017 0.833438
vt 0.601017 0.813894
vt 0.608893 0.813894
vt 0.608893 0.833438
vt 0.505338 0.453529
vt 0.271902 0.453530
vt 0.277471 0.447961
vt 0.505338 0.445654
vt 0.259984 0.780527
vt 0.259983 0.465448
vt 0.505338 0.800292
vt 0.277471 0.797985
vt 0.271308 0.807573
vt 0.597569 0.807573
vt 0.597569 0.833438
vt 0.909013 0.445654
vt 0.909013 0.760778
vt 0.889470 0.760778
vt 0.889470 0.445654
vt 0.967784 0.735201
vt 0.967784 0.963092
vt 0.948241 0.963092
vt 0.948241 0.735201
vt 0.003640 0.834431
vt 0.231531 0.834431
vt 0.231531 0.853975
vt 0.003640 0.853975
vt 0.259983 0.833438
vt 0.259983 0.813894
vt 0.876936 0.423910
vt 0.641024 0.423910
vt 0.641024 0.017779
vt 0.876936 0.017779
vt 0.733046 0.453530
vt 0.757711 0.453530
vt 0.733046 0.456978
vt 0.641024 0.430205
vt 0.873501 0.430206
vt 0.633935 0.017765
vt 0.633935 0.423896
vt 0.733046 0.868253
vt 0.757711 0.868253
vt 0.757712 0.876129
vt 0.733046 0.876129
vt 0.873502 0.011484
vt 0.641024 0.011483
vt 0.646569 0.005938
vt 0.873502 0.003640
vt 0.626968 0.418393
vt 0.626943 0.024757
vt 0.873501 0.438049
vt 0.646569 0.435751
vt 0.764033 0.456978
vt 0.764033 0.864805
vt 0.733046 0.864805
vt 0.829513 0.445654
vt 0.829513 0.842342
vt 0.804848 0.842342
vt 0.804847 0.445654
vt 0.940960 0.735201
vt 0.940960 0.963091
vt 0.916294 0.963091
vt 0.916294 0.735201
vt 0.943507 0.673545
vt 0.943507 0.445654
vt 0.968172 0.445654
vt 0.968172 0.673545
vt 0.733046 0.445654
vt 0.757712 0.445654
vt 0.619662 0.424226
vt 0.329383 0.424226
vt 0.329383 0.017791
vt 0.619662 0.017791
vt 0.854976 0.868257
vt 0.843115 0.868257
vt 0.854976 0.864809
vt 0.329383 0.430525
vt 0.616227 0.430524
vt 0.322289 0.017777
vt 0.322289 0.424212
vt 0.854976 0.453530
vt 0.843116 0.453530
vt 0.843116 0.445654
vt 0.854976 0.445654
vt 0.616226 0.011491
vt 0.329383 0.011492
vt 0.334934 0.005941
vt 0.616226 0.003640
vt 0.315316 0.418704
vt 0.315292 0.024774
vt 0.616227 0.438373
vt 0.334934 0.436076
vt 0.836794 0.864809
vt 0.836795 0.456978
vt 0.854976 0.456978
vt 0.946372 0.003640
vt 0.946372 0.400336
vt 0.934511 0.400336
vt 0.934512 0.003640
vt 0.974364 0.285910
vt 0.974364 0.003640
vt 0.986225 0.003640
vt 0.986225 0.285910
vt 0.259983 0.857480
vt 0.542253 0.857480
vt 0.542253 0.869340
vt 0.259983 0.869340
vt 0.854976 0.876133
vt 0.843115 0.876133
vt 0.252703 0.812965
vt 0.016023 0.812965
vt 0.016023 0.459838
vt 0.252703 0.459838
vt 0.900018 0.371864
vt 0.890538 0.371864
vt 0.900018 0.368416
vt 0.016023 0.819281
vt 0.249257 0.819282
vt 0.009707 0.459838
vt 0.009708 0.812965
vt 0.900018 0.011516
vt 0.890538 0.011516
vt 0.890538 0.003640
vt 0.900018 0.003640
vt 0.249257 0.453523
vt 0.016023 0.453522
vt 0.021586 0.447959
vt 0.249257 0.445654
vt 0.003650 0.807418
vt 0.003640 0.465905
vt 0.249257 0.827150
vt 0.021586 0.824844
vt 0.884217 0.368416
vt 0.884217 0.014965
vt 0.900018 0.014965
vt 0.259983 0.840719
vt 0.602302 0.840719
vt 0.602302 0.850199
vt 0.259983 0.850199
vt 0.898950 0.768058
vt 0.898950 0.995951
vt 0.889470 0.995951
vt 0.889470 0.768059
vt 0.975453 0.995960
vt 0.975453 0.768067
vt 0.984933 0.768067
vt 0.984933 0.995960
vt 0.900018 0.379740
vt 0.890538 0.379740
vt 0.516068 0.459850
vt 0.713848 0.459851
vt 0.713847 0.786092
vt 0.516067 0.786092
vt 0.967083 0.344675
vt 0.959974 0.344675
vt 0.967083 0.341227
vt 0.713848 0.453530
vt 0.519515 0.453530
vt 0.720168 0.786092
vt 0.720168 0.459850
vt 0.967083 0.011516
vt 0.959974 0.011516
vt 0.959974 0.003640
vt 0.967083 0.003640
vt 0.519515 0.792413
vt 0.713847 0.792413
vt 0.708278 0.797982
vt 0.519515 0.800287
vt 0.725765 0.465418
vt 0.725765 0.780495
vt 0.519516 0.445654
vt 0.708279 0.447961
vt 0.953653 0.341227
vt 0.953653 0.014964
vt 0.967083 0.014965
vt 0.982562 0.445654
vt 0.982562 0.760786
vt 0.975453 0.760786
vt 0.975454 0.445654
vt 0.192432 0.868364
vt 0.003640 0.868364
vt 0.003640 0.861256
vt 0.192432 0.861256
vt 0.718657 0.996360
vt 0.718657 0.807568
vt 0.725765 0.807568
vt 0.725765 0.996360
vt 0.967083 0.352551
vt 0.959974 0.352551
vt 0.308011 0.424226
vt 0.017732 0.424226
vt 0.017732 0.017791
vt 0.308011 0.017791
vt 0.797567 0.868253
vt 0.777635 0.868253
vt 0.797567 0.864805
vt 0.017732 0.430525
vt 0.304575 0.430524
vt 0.010638 0.017777
vt 0.010638 0.424212
vt 0.797567 0.453530
vt 0.777635 0.453530
vt 0.777635 0.445654
vt 0.797567 0.445654
vt 0.304574 0.011491
vt 0.017732 0.011492
vt 0.023283 0.005941
vt 0.304574 0.003640
vt 0.003665 0.418704
vt 0.003640 0.024774
vt 0.304575 0.438373
vt 0.023283 0.436077
vt 0.771314 0.864805
vt 0.771314 0.456978
vt 0.797567 0.456978
vt 0.882189 0.445654
vt 0.882189 0.842339
vt 0.862258 0.842339
vt 0.862257 0.445654
vt 0.936226 0.445654
vt 0.936226 0.727920
vt 0.916294 0.727920
vt 0.916294 0.445654
vt 0.907299 0.285906
vt 0.907299 0.003641
vt 0.927230 0.003640
vt 0.927230 0.285906
vt 0.797567 0.876130
vt 0.777635 0.876130
vt 0.508786 0.786095
vt 0.508786 0.459850
vt 0.271902 0.459850
vt 0.271902 0.786095
vt 0.267859 0.813894
vt 0.271902 0.792416
vt 0.505338 0.792416
vt 0.265581 0.459850
vt 0.265581 0.786095
vt 0.608893 0.813894
vt 0.601017 0.813894
vt 0.505338 0.453529
vt 0.271902 0.453530
vt 0.505338 0.445654
vt 0.277471 0.447961
vt 0.259983 0.465448
vt 0.259984 0.780527
vt 0.277471 0.797985
vt 0.505338 0.800292
vt 0.597569 0.807573
vt 0.271308 0.807573
vt 0.909013 0.445654
vt 0.909013 0.760778
vt 0.967784 0.735201
vt 0.967784 0.963092
vt 0.003640 0.834431
vt 0.231531 0.834431
vt 0.259983 0.813894
vt 0.876936 0.423910
vt 0.876936 0.017779
vt 0.641024 0.017779
vt 0.641024 0.423910
vt 0.757711 0.453530
vt 0.641024 0.430205
vt 0.873501 0.430206
vt 0.633935 0.017765
vt 0.633935 0.423896
vt 0.757712 0.876129
vt 0.757711 0.868253
vt 0.873502 0.011484
vt 0.641024 0.011483
vt 0.873502 0.003640
vt 0.646569 0.005938
vt 0.626943 0.024757
vt 0.626968 0.418393
vt 0.646569 0.435751
vt 0.873501 0.438049
vt 0.764033 0.864805
vt 0.764033 0.456978
vt 0.829513 0.445654
vt 0.829513 0.842342
vt 0.940960 0.735201
vt 0.940960 0.963091
vt 0.943507 0.673545
vt 0.943507 0.445654
vt 0.757712 0.445654
vt 0.619662 0.424226
vt 0.619662 0.017791
vt 0.329383 0.017791
vt 0.329383 0.424226
vt 0.843115 0.868257
vt 0.329383 0.430525
vt 0.616227 0.430524
vt 0.322289 0.017777
vt 0.322289 0.424212
vt 0.843116 0.445654
vt 0.843116 0.453530
vt 0.616226 0.011491
vt 0.329383 0.011492
vt 0.616226 0.003640
vt 0.334934 0.005941
vt 0.315292 0.024774
vt 0.315316 0.418704
vt 0.334934 0.436076
vt 0.616227 0.438373
vt 0.836795 0.456978
vt 0.836794 0.864809
vt 0.946372 0.003640
vt 0.946372 0.400336
vt 0.974364 0.285910
vt 0.974364 0.003640
vt 0.259983 0.857480
vt 0.542253 0.857480
vt 0.843115 0.876133
vt 0.252703 0.812965
vt 0.252703 0.459838
vt 0.016023 0.459838
vt 0.016023 0.812965
vt 0.890538 0.371864
vt 0.016023 0.819281
vt 0.249257 0.819282
vt 0.009707 0.459838
vt 0.009708 0.812965
vt 0.890538 0.003640
vt 0.890538 0.011516
vt 0.249257 0.453523
vt 0.016023 0.453522
vt 0.249257 0.445654
vt 0.021586 0.447959
vt 0.003640 0.465905
vt 0.003650 0.807418
vt 0.021586 0.824844
vt 0.249257 0.827150
vt 0.884217 0.014965
vt 0.884217 0.368416
vt 0.259983 0.840719
vt 0.602302 0.840719
vt 0.898950 0.768058
vt 0.898950 0.995951
vt 0.975453 0.995960
vt 0.975453 0.768067
vt 0.890538 0.379740
vt 0.516068 0.459850
vt 0.516067 0.786092
vt 0.713847 0.786092
vt 0.713848 0.459851
vt 0.959974 0.344675
vt 0.713848 0.453530
vt 0.519515 0.453530
vt 0.720168 0.786092
vt 0.720168 0.459850
vt 0.959974 0.003640
vt 0.959974 0.011516
vt 0.519515 0.792413
vt 0.713847 0.792413
vt 0.519515 0.800287
vt 0.708278 0.797982
vt 0.725765 0.780495
vt 0.725765 0.465418
vt 0.708279 0.447961
vt 0.519516 0.445654
vt 0.953653 0.014964
vt 0.953653 0.341227
vt 0.982562 0.445654
vt 0.982562 0.760786
vt 0.192432 0.868364
vt 0.003640 0.868364
vt 0.718657 0.996360
vt 0.718657 0.807568
vt 0.959974 0.352551
vt 0.308011 0.424226
vt 0.308011 0.017791
vt 0.017732 0.017791
vt 0.017732 0.424226
vt 0.777635 0.868253
vt 0.017732 0.430525
vt 0.304575 0.430524
vt 0.010638 0.017777
vt 0.010638 0.424212
vt 0.777635 0.445654
vt 0.777635 0.453530
vt 0.304574 0.011491
vt 0.017732 0.011492
vt 0.304574 0.003640
vt 0.023283 0.005941
vt 0.003640 0.024774
vt 0.003665 0.418704
vt 0.023283 0.436077
vt 0.304575 0.438373
vt 0.771314 0.456978
vt 0.771314 0.864805
vt 0.882189 0.445654
vt 0.882189 0.842339
vt 0.936226 0.445654
vt 0.936226 0.727920
vt 0.907299 0.285906
vt 0.907299 0.003641
vt 0.777635 0.876130
vn 0.0000 1.0000 0.0000
vn 0.0000 0.0000 -1.0000
vn -1.0000 0.0000 0.0000
vn 0.0000 0.0000 1.0000
vn 0.0000 -1.0000 0.0000
vn 1.0000 0.0000 0.0000
vn 0.0101 0.0000 -0.9999
vn 0.0101 0.0000 0.9999
vn 0.0082 0.0000 -1.0000
vn 0.0082 0.0000 1.0000
vn 0.0122 0.0000 -0.9999
vn 0.0122 0.0000 0.9999
usemtl BooksMat
s off
f 11/1/1 2/2/1 1/3/1 12/4/1
f 86/5/2 5/6/2 92/7/2
f 4/8/2 2/2/2 11/1/2 5/9/2
f 3/10/3 1/3/3 2/2/3 4/11/3
f 85/12/3 6/13/3 7/14/3 87/15/3
f 6/16/4 12/4/4 1/3/4 3/17/4
f 6/16/5 3/17/5 8/18/5 7/19/5
f 3/10/5 4/11/5 10/20/5 8/21/5
f 4/8/5 5/9/5 9/22/5 10/23/5
f 92/7/6 11/24/6 12/25/6 91/26/6
f 12/25/4 6/13/4 91/26/4
f 5/6/2 11/24/2 92/7/2
f 8/27/3 10/28/3 90/29/3 88/30/3
f 10/31/7 9/32/7 89/33/7 90/34/7
f 7/35/8 8/36/8 88/37/8 87/38/8
f 5/6/3 86/5/3 89/39/3 9/40/3
f 6/13/4 85/12/4 91/26/4
f 23/41/1 14/42/1 13/43/1 24/44/1
f 106/45/2 17/46/2 112/47/2
f 16/48/2 14/42/2 23/41/2 17/49/2
f 15/50/3 13/43/3 14/42/3 16/51/3
f 105/52/3 18/53/3 19/54/3 107/55/3
f 18/56/4 24/44/4 13/43/4 15/57/4
f 18/56/5 15/57/5 20/58/5 19/59/5
f 15/50/5 16/51/5 22/60/5 20/61/5
f 16/48/5 17/49/5 21/62/5 22/63/5
f 112/47/6 23/64/6 24/65/6 111/66/6
f 24/65/4 18/53/4 111/66/4
f 17/46/2 23/64/2 112/47/2
f 20/67/3 22/68/3 110/69/3 108/70/3
f 22/71/7 21/72/7 109/73/7 110/74/7
f 19/75/8 20/76/8 108/77/8 107/78/8
f 17/46/3 106/45/3 109/79/3 21/80/3
f 18/53/4 105/52/4 111/66/4
f 35/81/1 26/82/1 25/83/1 36/84/1
f 126/85/2 29/86/2 132/87/2
f 28/88/2 26/82/2 35/81/2 29/89/2
f 27/90/3 25/83/3 26/82/3 28/91/3
f 125/92/3 30/93/3 31/94/3 127/95/3
f 30/96/4 36/84/4 25/83/4 27/97/4
f 30/96/5 27/97/5 32/98/5 31/99/5
f 27/90/5 28/91/5 34/100/5 32/101/5
f 28/88/5 29/89/5 33/102/5 34/103/5
f 132/87/6 35/104/6 36/105/6 131/106/6
f 36/105/4 30/93/4 131/106/4
f 29/86/2 35/104/2 132/87/2
f 32/107/3 34/108/3 130/109/3 128/110/3
f 34/111/9 33/112/9 129/113/9 130/114/9
f 31/115/10 32/116/10 128/117/10 127/118/10
f 29/86/3 126/85/3 129/119/3 33/120/3
f 30/93/4 125/92/4 131/106/4
f 47/121/1 38/122/1 37/123/1 48/124/1
f 146/125/2 41/126/2 152/127/2
f 40/128/2 38/122/2 47/121/2 41/129/2
f 39/130/3 37/123/3 38/122/3 40/131/3
f 145/132/3 42/133/3 43/134/3 147/135/3
f 42/136/4 48/124/4 37/123/4 39/137/4
f 42/136/5 39/137/5 44/138/5 43/139/5
f 39/130/5 40/131/5 46/140/5 44/141/5
f 40/128/5 41/129/5 45/142/5 46/143/5
f 152/127/6 47/144/6 48/145/6 151/146/6
f 48/145/4 42/133/4 151/146/4
f 41/126/2 47/144/2 152/127/2
f 44/147/3 46/148/3 150/149/3 148/150/3
f 46/151/7 45/152/7 149/153/7 150/154/7
f 43/155/8 44/156/8 148/157/8 147/158/8
f 41/126/3 146/125/3 149/159/3 45/160/3
f 42/133/4 145/132/4 151/146/4
f 59/161/1 50/162/1 49/163/1 60/164/1
f 166/165/2 53/166/2 172/167/2
f 52/168/2 50/162/2 59/161/2 53/169/2
f 51/170/3 49/163/3 50/162/3 52/171/3
f 165/172/3 54/173/3 55/174/3 167/175/3
f 54/176/4 60/164/4 49/163/4 51/177/4
f 54/176/5 51/177/5 56/178/5 55/179/5
f 51/170/5 52/171/5 58/180/5 56/181/5
f 52/168/5 53/169/5 57/182/5 58/183/5
f 172/167/6 59/184/6 60/185/6 171/186/6
f 60/185/4 54/173/4 171/186/4
f 53/166/2 59/184/2 172/167/2
f 56/187/3 58/188/3 170/189/3 168/190/3
f 58/191/11 57/192/11 169/193/11 170/194/11
f 55/195/12 56/196/12 168/197/12 167/198/12
f 53/166/3 166/165/3 169/199/3 57/200/3
f 54/173/4 165/172/4 171/186/4
f 71/201/1 62/202/1 61/203/1 72/204/1
f 186/205/2 65/206/2 192/207/2
f 64/208/2 62/202/2 71/201/2 65/209/2
f 63/210/3 61/203/3 62/202/3 64/211/3
f 185/212/3 66/213/3 67/214/3 187/215/3
f 66/216/4 72/204/4 61/203/4 63/217/4
f 66/216/5 63/217/5 68/218/5 67/219/5
f 63/210/5 64/211/5 70/220/5 68/221/5
f 64/208/5 65/209/5 69/222/5 70/223/5
f 192/207/6 71/224/6 72/225/6 191/226/6
f 72/225/4 66/213/4 191/226/4
f 65/206/2 71/224/2 192/207/2
f 68/227/3 70/228/3 190/229/3 188/230/3
f 70/231/9 69/232/9 189/233/9 190/234/9
f 67/235/10 68/236/10 188/237/10 187/238/10
f 65/206/3 186/205/3 189/239/3 69/240/3
f 66/213/4 185/212/4 191/226/4
f 83/241/5 84/242/5 73/243/5 74/244/5
f 86/5/2 92/7/2 77/245/2
f 76/246/2 77/247/2 83/241/2 74/244/2
f 75/248/3 76/249/3 74/244/3 73/243/3
f 85/12/3 87/15/3 79/250/3 78/251/3
f 78/252/4 75/253/4 73/243/4 84/242/4
f 78/252/1 79/254/1 80/255/1 75/253/1
f 75/248/1 80/256/1 82/257/1 76/249/1
f 76/246/1 82/258/1 81/259/1 77/247/1
f 92/7/6 91/26/6 84/260/6 83/261/6
f 84/260/4 91/26/4 78/251/4
f 77/245/2 92/7/2 83/261/2
f 80/262/3 88/30/3 90/29/3 82/263/3
f 82/264/7 90/34/7 89/33/7 81/265/7
f 79/266/8 87/38/8 88/37/8 80/267/8
f 77/245/3 81/268/3 89/39/3 86/5/3
f 78/251/4 91/26/4 85/12/4
f 103/269/5 104/270/5 93/271/5 94/272/5
f 106/45/2 112/47/2 97/273/2
f 96/274/2 97/275/2 103/269/2 94/272/2
f 95/276/3 96/277/3 94/272/3 93/271/3
f 105/52/3 107/55/3 99/278/3 98/279/3
f 98/280/4 95/281/4 93/271/4 104/270/4
f 98/280/1 99/282/1 100/283/1 95/281/1
f 95/276/1 100/284/1 102/285/1 96/277/1
f 96/274/1 102/286/1 101/287/1 97/275/1
f 112/47/6 111/66/6 104/288/6 103/289/6
f 104/288/4 111/66/4 98/279/4
f 97/273/2 112/47/2 103/289/2
f 100/290/3 108/70/3 110/69/3 102/291/3
f 102/292/7 110/74/7 109/73/7 101/293/7
f 99/294/8 107/78/8 108/77/8 100/295/8
f 97/273/3 101/296/3 109/79/3 106/45/3
f 98/279/4 111/66/4 105/52/4
f 123/297/5 124/298/5 113/299/5 114/300/5
f 126/85/2 132/87/2 117/301/2
f 116/302/2 117/303/2 123/297/2 114/300/2
f 115/304/3 116/305/3 114/300/3 113/299/3
f 125/92/3 127/95/3 119/306/3 118/307/3
f 118/308/4 115/309/4 113/299/4 124/298/4
f 118/308/1 119/310/1 120/311/1 115/309/1
f 115/304/1 120/312/1 122/313/1 116/305/1
f 116/302/1 122/314/1 121/315/1 117/303/1
f 132/87/6 131/106/6 124/316/6 123/317/6
f 124/316/4 131/106/4 118/307/4
f 117/301/2 132/87/2 123/317/2
f 120/318/3 128/110/3 130/109/3 122/319/3
f 122/320/9 130/114/9 129/113/9 121/321/9
f 119/322/10 127/118/10 128/117/10 120/323/10
f 117/301/3 121/324/3 129/119/3 126/85/3
f 118/307/4 131/106/4 125/92/4
f 143/325/5 144/326/5 133/327/5 134/328/5
f 146/125/2 152/127/2 137/329/2
f 136/330/2 137/331/2 143/325/2 134/328/2
f 135/332/3 136/333/3 134/328/3 133/327/3
f 145/132/3 147/135/3 139/334/3 138/335/3
f 138/336/4 135/337/4 133/327/4 144/326/4
f 138/336/1 139/338/1 140/339/1 135/337/1
f 135/332/1 140/340/1 142/341/1 136/333/1
f 136/330/1 142/342/1 141/343/1 137/331/1
f 152/127/6 151/146/6 144/344/6 143/345/6
f 144/344/4 151/146/4 138/335/4
f 137/329/2 152/127/2 143/345/2
f 140/346/3 148/150/3 150/149/3 142/347/3
f 142/348/7 150/154/7 149/153/7 141/349/7
f 139/350/8 147/158/8 148/157/8 140/351/8
f 137/329/3 141/352/3 149/159/3 146/125/3
f 138/335/4 151/146/4 145/132/4
f 163/353/5 164/354/5 153/355/5 154/356/5
f 166/165/2 172/167/2 157/357/2
f 156/358/2 157/359/2 163/353/2 154/356/2
f 155/360/3 156/361/3 154/356/3 153/355/3
f 165/172/3 167/175/3 159/362/3 158/363/3
f 158/364/4 155/365/4 153/355/4 164/354/4
f 158/364/1 159/366/1 160/367/1 155/365/1
f 155/360/1 160/368/1 162/369/1 156/361/1
f 156/358/1 162/370/1 161/371/1 157/359/1
f 172/167/6 171/186/6 164/372/6 163/373/6
f 164/372/4 171/186/4 158/363/4
f 157/357/2 172/167/2 163/373/2
f 160/374/3 168/190/3 170/189/3 162/375/3
f 162/376/11 170/194/11 169/193/11 161/377/11
f 159/378/12 167/198/12 168/197/12 160/379/12
f 157/357/3 161/380/3 169/199/3 166/165/3
f 158/363/4 171/186/4 165/172/4
f 183/381/5 184/382/5 173/383/5 174/384/5
f 186/205/2 192/207/2 177/385/2
f 176/386/2 177/387/2 183/381/2 174/384/2
f 175/388/3 176/389/3 174/384/3 173/383/3
f 185/212/3 187/215/3 179/390/3 178/391/3
f 178/392/4 175/393/4 173/383/4 184/382/4
f 178/392/1 179/394/1 180/395/1 175/393/1
f 175/388/1 180/396/1 182/397/1 176/389/1
f 176/386/1 182/398/1 181/399/1 177/387/1
f 192/207/6 191/226/6 184/400/6 183/401/6
f 184/400/4 191/226/4 178/391/4
f 177/385/2 192/207/2 183/401/2
f 180/402/3 188/230/3 190/229/3 182/403/3
f 182/404/9 190/234/9 189/233/9 181/405/9
f 179/406/10 187/238/10 188/237/10 180/407/10
f 177/385/3 181/408/3 189/239/3 186/205/3
f 178/391/4 191/226/4 185/212/4
