# Blender v2.82 (sub 7) OBJ File: 'Cardboard Box.blend'
# www.blender.org
mtllib Cardboard Box.mtl
o Cardboard_Box
v 4.000000 0.000000 -2.000000
v 4.000000 2.000000 -2.000000
v 4.000000 0.000000 -6.000000
v 4.000000 2.000000 -6.000000
v 6.000000 0.000000 -2.000000
v 6.000000 2.000000 -2.000000
v 6.000000 0.000000 -6.000000
v 6.000000 2.000000 -6.000000
v 5.000000 0.000000 -6.000000
v 5.000000 2.000000 -6.000000
v 5.000000 0.000000 -2.000000
v 5.000000 2.000000 -2.000000
v -13.200000 0.000000 -2.600000
v -13.200000 1.560000 -2.600000
v -13.200000 0.000000 -5.000000
v -13.200000 1.560000 -5.000000
v -10.800000 0.000000 -2.600000
v -10.800000 1.560000 -2.600000
v -10.800000 0.000000 -5.000000
v -10.800000 1.560000 -5.000000
v -12.000000 0.000000 -5.000000
v -12.000000 1.560000 -5.000000
v -12.000000 0.000000 -2.600000
v -12.000000 1.560000 -2.600000
v -6.000000 0.000000 -3.000000
v -6.000000 2.000000 -3.000000
v -6.000000 0.000000 -5.000000
v -6.000000 2.000000 -5.000000
v -4.000000 0.000000 -3.000000
v -4.000000 2.000000 -3.000000
v -4.000000 0.000000 -5.000000
v -4.000000 2.000000 -5.000000
v -5.000000 0.000000 -5.000000
v -5.000000 2.000000 -5.000000
v -5.000000 0.000000 -3.000000
v -5.000000 2.000000 -3.000000
v 6.260000 0.000000 5.800000
v 6.176639 0.207053 5.716640
v 6.260000 1.700000 5.800000
v 6.176639 1.700000 5.716640
v 6.284540 1.872676 5.716640
v 6.346434 1.816835 5.800000
v 6.176639 1.836959 5.876554
v 6.260000 1.755276 5.893193
v 6.176639 1.743165 6.061353
v 6.260000 1.699013 5.990645
v 6.176639 0.356606 6.641937
v 6.260000 0.338136 6.573685
v 6.434789 1.780161 5.800000
v 6.473806 1.853826 5.716640
v 7.052360 0.408316 5.800000
v 7.127740 0.443909 5.716640
v 6.260000 0.000000 2.200000
v 6.176639 0.207053 2.283360
v 6.260000 1.700000 2.200000
v 6.176639 1.700000 2.283360
v 6.284540 1.872676 2.283360
v 6.346434 1.816835 2.200000
v 6.176639 1.836959 2.123446
v 6.260000 1.755276 2.106807
v 6.176639 1.743165 1.938647
v 6.260000 1.699013 2.009355
v 6.176639 0.356606 1.358063
v 6.260000 0.338136 1.426315
v 6.434789 1.780161 2.200000
v 6.473806 1.853826 2.283360
v 7.052360 0.408316 2.200000
v 7.127740 0.443909 2.283360
v -3.740000 0.000000 5.800000
v -3.823360 0.207053 5.716640
v -3.740000 1.700000 5.800000
v -3.823360 1.700000 5.716640
v -3.715460 1.872676 5.716640
v -3.653566 1.816835 5.800000
v -3.823360 1.836959 5.876554
v -3.740000 1.755276 5.893193
v -3.823360 1.743165 6.061353
v -3.740000 1.699013 5.990645
v -3.823360 0.772574 6.467762
v -3.740000 0.746399 6.398773
v -3.565211 1.780161 5.800000
v -3.526194 1.853826 5.716640
v -2.947640 0.408316 5.800000
v -2.872260 0.443909 5.716640
v -3.740000 0.000000 3.200000
v -3.823360 0.207053 3.283360
v -3.740000 1.700000 3.200000
v -3.823360 1.700000 3.283360
v -3.715460 1.872676 3.283360
v -3.653566 1.816835 3.200000
v -3.823360 1.836959 3.123446
v -3.740000 1.755276 3.106807
v -3.823360 1.743165 2.938647
v -3.740000 1.699013 3.009355
v -3.823360 0.772574 2.532238
v -3.740000 0.746399 2.601227
v -3.565211 1.780161 3.200000
v -3.526194 1.853826 3.283360
v -2.947640 0.408316 3.200000
v -2.872260 0.443909 3.283360
v 3.740000 0.000000 5.800000
v 3.823361 0.207053 5.716640
v 3.740000 1.700000 5.800000
v 3.823361 1.700000 5.716640
v 3.715460 1.872676 5.716640
v 3.653566 1.816835 5.800000
v 3.823361 1.836959 5.876554
v 3.740000 1.755276 5.893193
v 3.823361 1.743165 6.061353
v 3.740000 1.699013 5.990645
v 3.823361 0.356606 6.641937
v 3.740000 0.338136 6.573685
v 3.565211 1.780161 5.800000
v 3.526194 1.853826 5.716640
v 2.947640 0.408316 5.800000
v 2.872260 0.443909 5.716640
v 3.740000 0.000000 2.200000
v 3.823361 0.207053 2.283360
v 3.740000 1.700000 2.200000
v 3.823361 1.700000 2.283360
v 3.715460 1.872676 2.283360
v 3.653566 1.816835 2.200000
v 3.823361 1.836959 2.123446
v 3.740000 1.755276 2.106807
v 3.823361 1.743165 1.938647
v 3.740000 1.699013 2.009355
v 3.823361 0.356606 1.358063
v 3.740000 0.338136 1.426315
v 3.565211 1.780161 2.200000
v 3.526194 1.853826 2.283360
v 2.947640 0.408316 2.200000
v 2.872260 0.443909 2.283360
v 5.000000 0.000000 5.800000
v 5.000000 1.700000 5.800000
v 5.000000 1.700000 5.716640
v 5.000000 0.207053 5.716640
v 5.000000 1.836959 5.876554
v 5.000000 1.755276 5.893193
v 5.000000 1.743165 6.061353
v 5.000000 1.699013 5.990645
v 5.000000 0.356606 6.641937
v 5.000000 0.338136 6.573685
v 5.000000 0.000000 2.200000
v 5.000000 1.700000 2.200000
v 5.000000 1.700000 2.283360
v 5.000000 0.207053 2.283360
v 5.000000 1.836959 2.123446
v 5.000000 1.755276 2.106807
v 5.000000 1.743165 1.938647
v 5.000000 1.699013 2.009355
v 5.000000 0.356606 1.358063
v 5.000000 0.338136 1.426315
v -6.260000 0.000000 5.800000
v -6.176640 0.207053 5.716640
v -6.260000 1.700000 5.800000
v -6.176640 1.700000 5.716640
v -6.284540 1.872676 5.716640
v -6.346434 1.816835 5.800000
v -6.176640 1.836959 5.876554
v -6.260000 1.755276 5.893193
v -6.176640 1.743165 6.061353
v -6.260000 1.699013 5.990645
v -6.176640 0.772574 6.467762
v -6.260000 0.746399 6.398773
v -6.434789 1.780161 5.800000
v -6.473806 1.853826 5.716640
v -7.052360 0.408316 5.800000
v -7.127740 0.443909 5.716640
v -6.260000 0.000000 3.200000
v -6.176640 0.207053 3.283360
v -6.260000 1.700000 3.200000
v -6.176640 1.700000 3.283360
v -6.284540 1.872676 3.283360
v -6.346434 1.816835 3.200000
v -6.176640 1.836959 3.123446
v -6.260000 1.755276 3.106807
v -6.176640 1.743165 2.938647
v -6.260000 1.699013 3.009355
v -6.176640 0.772574 2.532238
v -6.260000 0.746399 2.601227
v -6.434789 1.780161 3.200000
v -6.473806 1.853826 3.283360
v -7.052360 0.408316 3.200000
v -7.127740 0.443909 3.283360
v -5.000000 0.000000 5.800000
v -5.000000 1.700000 5.800000
v -5.000000 1.700000 5.716640
v -5.000000 0.207053 5.716640
v -5.000000 1.836959 5.876554
v -5.000000 1.755276 5.893193
v -5.000000 1.743165 6.061353
v -5.000000 1.699013 5.990645
v -5.000000 0.772574 6.467762
v -5.000000 0.746399 6.398773
v -5.000000 0.000000 3.200000
v -5.000000 1.700000 3.200000
v -5.000000 1.700000 3.283360
v -5.000000 0.207053 3.283360
v -5.000000 1.836959 3.123446
v -5.000000 1.755276 3.106807
v -5.000000 1.743165 2.938647
v -5.000000 1.699013 3.009355
v -5.000000 0.772574 2.532238
v -5.000000 0.746399 2.601227
vt 0.324561 0.217688
vt 0.257325 0.217688
vt 0.257324 0.083215
vt 0.324561 0.083215
vt 0.223706 0.015979
vt 0.223706 0.083215
vt 0.190088 0.083215
vt 0.190088 0.015979
vt 0.122851 0.083215
vt 0.190088 0.217688
vt 0.122852 0.217688
vt 0.223706 0.284925
vt 0.223706 0.217688
vt 0.257325 0.284925
vt 0.190088 0.284925
vt 0.257324 0.015979
vt 0.255980 0.567432
vt 0.255980 0.619876
vt 0.175296 0.619876
vt 0.175296 0.567432
vt 0.122852 0.660218
vt 0.175296 0.660218
vt 0.175296 0.700560
vt 0.122851 0.700560
vt 0.175296 0.753005
vt 0.255980 0.700560
vt 0.255980 0.753005
vt 0.308424 0.660218
vt 0.255980 0.660218
vt 0.308424 0.619876
vt 0.308424 0.700560
vt 0.122852 0.619876
vt 0.417987 0.211920
vt 0.417987 0.144684
vt 0.485224 0.144684
vt 0.485224 0.211920
vt 0.552460 0.111066
vt 0.485224 0.111066
vt 0.485224 0.077447
vt 0.552460 0.077447
vt 0.485224 0.010211
vt 0.417987 0.077447
vt 0.417987 0.010211
vt 0.350751 0.111066
vt 0.417987 0.111066
vt 0.350751 0.144684
vt 0.350751 0.077447
vt 0.552460 0.144684
vt 0.753715 0.836941
vt 0.645479 0.836941
vt 0.645479 0.607735
vt 0.753715 0.607735
vt 0.845753 0.245185
vt 0.765531 0.245185
vt 0.765531 0.015979
vt 0.845753 0.015979
vt 0.811202 0.449663
vt 0.803342 0.451444
vt 0.804853 0.439196
vt 0.810838 0.441352
vt 0.341932 0.316883
vt 0.341932 0.535474
vt 0.246878 0.535474
vt 0.246878 0.316883
vt 0.597689 0.324954
vt 0.594355 0.636176
vt 0.586103 0.634024
vt 0.590496 0.326030
vt 0.608229 0.327495
vt 0.600391 0.316883
vt 0.613521 0.321434
vt 0.607039 0.633333
vt 0.906773 0.438892
vt 0.906008 0.431319
vt 0.090894 0.546984
vt 0.090894 0.560389
vt 0.015979 0.560389
vt 0.015979 0.546984
vt 0.809805 0.463995
vt 0.813789 0.457169
vt 0.826664 0.369738
vt 0.828943 0.375779
vt 0.907588 0.321555
vt 0.233914 0.535474
vt 0.233914 0.316883
vt 0.904412 0.316883
vt 0.907588 0.446168
vt 0.015979 0.451930
vt 0.090894 0.451930
vt 0.015979 0.573584
vt 0.090894 0.573584
vt 0.090894 0.669290
vt 0.015979 0.669290
vt 0.480762 0.984021
vt 0.480762 0.875785
vt 0.560984 0.875785
vt 0.560984 0.984021
vt 0.015979 0.233339
vt 0.090894 0.233339
vt 0.221804 0.535474
vt 0.221804 0.316883
vt 0.588251 0.319101
vt 0.480762 0.531524
vt 0.517709 0.381075
vt 0.524001 0.381823
vt 0.484715 0.532506
vt 0.122852 0.535474
vt 0.122851 0.316883
vt 0.793533 0.622067
vt 0.793169 0.630379
vt 0.787184 0.632535
vt 0.785673 0.620286
vt 0.613521 0.640754
vt 0.597443 0.646331
vt 0.889104 0.632838
vt 0.888338 0.640412
vt 0.090894 0.138285
vt 0.015979 0.138285
vt 0.015979 0.124880
vt 0.090894 0.124880
vt 0.792136 0.607735
vt 0.796120 0.614562
vt 0.811273 0.695952
vt 0.808994 0.701992
vt 0.889919 0.750176
vt 0.886743 0.754848
vt 0.889919 0.625562
vt 0.015979 0.111686
vt 0.015979 0.015979
vt 0.090894 0.015979
vt 0.090894 0.111686
vt 0.448804 0.881059
vt 0.448804 0.961282
vt 0.340568 0.961282
vt 0.340568 0.881059
vt 0.581883 0.643237
vt 0.588998 0.843827
vt 0.480762 0.843827
vt 0.480762 0.678289
vt 0.588998 0.678289
vt 0.122851 0.865184
vt 0.122851 0.784962
vt 0.288389 0.784962
vt 0.288389 0.865184
vt 0.866739 0.895522
vt 0.866904 0.903740
vt 0.854848 0.899593
vt 0.858458 0.894073
vt 0.578650 0.015979
vt 0.733573 0.015979
vt 0.733573 0.111032
vt 0.578650 0.111032
vt 0.754955 0.325114
vt 0.751611 0.565448
vt 0.743035 0.563454
vt 0.747454 0.325946
vt 0.765911 0.327849
vt 0.757851 0.316883
vt 0.771384 0.321610
vt 0.764830 0.562547
vt 0.873395 0.799376
vt 0.865782 0.798769
vt 0.373889 0.410477
vt 0.373889 0.397072
vt 0.448804 0.397072
vt 0.448804 0.410477
vt 0.880725 0.899746
vt 0.874683 0.894419
vt 0.810496 0.869350
vt 0.816504 0.868600
vt 0.790751 0.786805
vt 0.733573 0.123996
vt 0.578650 0.123996
vt 0.785673 0.788362
vt 0.880725 0.799883
vt 0.448804 0.505531
vt 0.373889 0.505531
vt 0.448804 0.383877
vt 0.373889 0.383877
vt 0.373889 0.316883
vt 0.448804 0.316883
vt 0.877711 0.273107
vt 0.877711 0.164871
vt 0.957933 0.164871
vt 0.957933 0.273107
vt 0.448804 0.660454
vt 0.373889 0.660454
vt 0.733573 0.136106
vt 0.578650 0.136106
vt 0.745542 0.318976
vt 0.645479 0.473497
vt 0.673636 0.374495
vt 0.679458 0.375519
vt 0.649111 0.474476
vt 0.733573 0.235059
vt 0.578650 0.235059
vt 0.958776 0.024197
vt 0.950496 0.025646
vt 0.946886 0.020126
vt 0.958941 0.015979
vt 0.771384 0.570295
vt 0.754736 0.575777
vt 0.965433 0.120342
vt 0.957820 0.120950
vt 0.373889 0.755507
vt 0.448804 0.755507
vt 0.448804 0.768912
vt 0.373889 0.768912
vt 0.972763 0.019973
vt 0.966720 0.025300
vt 0.908542 0.051118
vt 0.902534 0.050369
vt 0.882789 0.132913
vt 0.877711 0.131356
vt 0.972763 0.119836
vt 0.448804 0.782107
vt 0.448804 0.849102
vt 0.373889 0.849102
vt 0.373889 0.782107
vt 0.645479 0.949121
vt 0.645479 0.868899
vt 0.753715 0.868899
vt 0.753715 0.949121
vt 0.739204 0.572494
vt 0.753715 0.836941
vt 0.753715 0.607735
vt 0.645479 0.607735
vt 0.645479 0.836941
vt 0.765531 0.015979
vt 0.765531 0.245185
vt 0.811202 0.449663
vt 0.810838 0.441352
vt 0.804853 0.439196
vt 0.803342 0.451444
vt 0.341932 0.316883
vt 0.246878 0.316883
vt 0.246878 0.535474
vt 0.341932 0.535474
vt 0.597689 0.324954
vt 0.590496 0.326030
vt 0.586103 0.634024
vt 0.594355 0.636176
vt 0.608229 0.327495
vt 0.613521 0.321434
vt 0.600391 0.316883
vt 0.607039 0.633333
vt 0.015979 0.546984
vt 0.015979 0.560389
vt 0.809805 0.463995
vt 0.813789 0.457169
vt 0.828943 0.375779
vt 0.826664 0.369738
vt 0.233914 0.316883
vt 0.233914 0.535474
vt 0.015979 0.451930
vt 0.015979 0.573584
vt 0.015979 0.669290
vt 0.480762 0.984021
vt 0.480762 0.875785
vt 0.015979 0.233339
vt 0.221804 0.316883
vt 0.221804 0.535474
vt 0.588251 0.319101
vt 0.480762 0.531524
vt 0.484715 0.532506
vt 0.524001 0.381823
vt 0.517709 0.381075
vt 0.122851 0.316883
vt 0.122852 0.535474
vt 0.793533 0.622067
vt 0.785673 0.620286
vt 0.787184 0.632535
vt 0.793169 0.630379
vt 0.597443 0.646331
vt 0.613521 0.640754
vt 0.015979 0.124880
vt 0.015979 0.138285
vt 0.792136 0.607735
vt 0.796120 0.614562
vt 0.808994 0.701992
vt 0.811273 0.695952
vt 0.015979 0.111686
vt 0.015979 0.015979
vt 0.448804 0.881059
vt 0.340568 0.881059
vt 0.581883 0.643237
vt 0.588998 0.843827
vt 0.588998 0.678289
vt 0.480762 0.678289
vt 0.480762 0.843827
vt 0.288389 0.784962
vt 0.122851 0.784962
vt 0.866739 0.895522
vt 0.858458 0.894073
vt 0.854848 0.899593
vt 0.866904 0.903740
vt 0.578650 0.015979
vt 0.578650 0.111032
vt 0.733573 0.111032
vt 0.733573 0.015979
vt 0.754955 0.325114
vt 0.747454 0.325946
vt 0.743035 0.563454
vt 0.751611 0.565448
vt 0.765911 0.327849
vt 0.771384 0.321610
vt 0.757851 0.316883
vt 0.764830 0.562547
vt 0.448804 0.410477
vt 0.448804 0.397072
vt 0.880725 0.899746
vt 0.874683 0.894419
vt 0.816504 0.868600
vt 0.810496 0.869350
vt 0.578650 0.123996
vt 0.733573 0.123996
vt 0.448804 0.505531
vt 0.448804 0.383877
vt 0.448804 0.316883
vt 0.877711 0.273107
vt 0.877711 0.164871
vt 0.448804 0.660454
vt 0.578650 0.136106
vt 0.733573 0.136106
vt 0.745542 0.318976
vt 0.645479 0.473497
vt 0.649111 0.474476
vt 0.679458 0.375519
vt 0.673636 0.374495
vt 0.578650 0.235059
vt 0.733573 0.235059
vt 0.958776 0.024197
vt 0.958941 0.015979
vt 0.946886 0.020126
vt 0.950496 0.025646
vt 0.754736 0.575777
vt 0.771384 0.570295
vt 0.448804 0.768912
vt 0.448804 0.755507
vt 0.972763 0.019973
vt 0.966720 0.025300
vt 0.902534 0.050369
vt 0.908542 0.051118
vt 0.448804 0.782107
vt 0.448804 0.849102
vt 0.645479 0.949121
vt 0.753715 0.949121
vt 0.739204 0.572494
vn -1.0000 0.0000 0.0000
vn 0.0000 0.0000 -1.0000
vn 1.0000 0.0000 0.0000
vn 0.0000 0.0000 1.0000
vn 0.0000 1.0000 0.0000
vn 0.9497 -0.3131 0.0000
vn 0.0000 -1.0000 0.0000
vn 0.6827 0.7298 -0.0355
vn 0.3271 0.9383 -0.1124
vn 0.3388 0.6314 0.6976
vn 0.6748 0.5151 0.5286
vn -0.9203 0.3349 0.2024
vn -0.9203 0.3349 -0.2024
vn -0.3834 -0.9236 0.0000
vn -0.6966 -0.7175 0.0000
vn -0.6141 0.4122 0.6731
vn -0.1804 0.6994 0.6916
vn -0.4261 0.8366 0.3443
vn 0.8039 -0.5947 0.0000
vn 0.0000 -1.0000 0.0059
vn 0.0000 -0.6639 -0.7478
vn 0.0000 0.4180 -0.9084
vn 0.0000 0.7595 -0.6505
vn 0.1662 0.5043 -0.8474
vn 0.6015 0.6362 -0.4832
vn 0.3517 0.3630 0.8629
vn 0.6746 0.2879 0.6797
vn 0.0000 -0.3938 -0.9192
vn -0.4261 0.8366 -0.3443
vn 0.0000 -0.9653 0.2612
vn 0.0000 -0.4949 0.8689
vn 0.0000 0.6808 0.7325
vn 0.0000 0.3862 0.9224
vn 0.0000 0.8917 0.4526
vn 0.5464 0.7713 0.3263
vn 0.5464 0.7713 -0.3263
vn 0.4755 0.5610 0.6776
vn 0.4270 -0.9043 0.0000
vn -0.9119 -0.4105 0.0000
vn 0.8480 0.3909 0.3579
vn 0.8480 0.3909 -0.3579
vn 0.6772 0.3095 0.6675
vn 0.6827 0.7298 0.0355
vn 0.6748 0.5151 -0.5286
vn 0.3388 0.6314 -0.6976
vn 0.3271 0.9383 0.1124
vn -0.6141 0.4122 -0.6731
vn -0.1804 0.6994 -0.6916
vn 0.0000 -1.0000 -0.0059
vn 0.0000 -0.6639 0.7478
vn 0.0000 0.4180 0.9084
vn 0.1662 0.5043 0.8474
vn 0.0000 0.7595 0.6505
vn 0.6015 0.6362 0.4832
vn 0.6746 0.2879 -0.6797
vn 0.3517 0.3630 -0.8629
vn 0.0000 -0.3938 0.9192
vn 0.0000 -0.9653 -0.2612
vn 0.0000 -0.4949 -0.8689
vn 0.0000 0.3862 -0.9224
vn 0.0000 0.6808 -0.7325
vn 0.0000 0.8917 -0.4526
vn 0.4755 0.5610 -0.6776
vn 0.6772 0.3095 -0.6675
vn 0.3417 0.6312 0.6963
vn 0.6789 0.5134 0.5249
vn 0.3647 0.3611 0.8582
vn 0.6834 0.2847 0.6723
vn 0.0000 -0.9350 0.3547
vn 0.6789 0.5134 -0.5249
vn 0.3417 0.6312 -0.6963
vn 0.6834 0.2847 -0.6723
vn 0.3647 0.3611 -0.8582
vn 0.0000 -0.9350 -0.3547
vn -0.9497 -0.3131 0.0000
vn -0.6827 0.7298 -0.0355
vn -0.6748 0.5151 0.5286
vn -0.3388 0.6314 0.6976
vn -0.3271 0.9383 -0.1124
vn 0.9203 0.3349 -0.2024
vn 0.9203 0.3349 0.2024
vn 0.3834 -0.9236 0.0000
vn 0.6966 -0.7175 0.0000
vn 0.6141 0.4122 0.6731
vn 0.4261 0.8366 0.3443
vn 0.1804 0.6994 0.6916
vn -0.8039 -0.5947 0.0000
vn -0.1662 0.5043 -0.8474
vn -0.6015 0.6362 -0.4832
vn -0.6746 0.2879 0.6797
vn -0.3517 0.3630 0.8629
vn 0.4261 0.8366 -0.3443
vn -0.5464 0.7713 -0.3263
vn -0.5464 0.7713 0.3263
vn -0.4755 0.5610 0.6776
vn -0.4270 -0.9043 0.0000
vn 0.9119 -0.4105 0.0000
vn -0.8480 0.3909 -0.3579
vn -0.8480 0.3909 0.3579
vn -0.6772 0.3095 0.6675
vn -0.6827 0.7298 0.0355
vn -0.3271 0.9383 0.1124
vn -0.3388 0.6314 -0.6976
vn -0.6748 0.5151 -0.5286
vn 0.6141 0.4122 -0.6731
vn 0.1804 0.6994 -0.6916
vn -0.1663 0.5043 0.8474
vn -0.6015 0.6362 0.4832
vn -0.3517 0.3630 -0.8629
vn -0.6746 0.2879 -0.6797
vn -0.4755 0.5610 -0.6776
vn -0.6772 0.3095 -0.6675
vn -0.6789 0.5134 0.5249
vn -0.3417 0.6312 0.6963
vn -0.6834 0.2847 0.6723
vn -0.3647 0.3611 0.8582
vn -0.3417 0.6312 -0.6963
vn -0.6789 0.5134 -0.5249
vn -0.3647 0.3611 -0.8582
vn -0.6834 0.2847 -0.6723
usemtl CardboardBoxMat
s 1
f 1/1/1 2/2/1 4/3/1 3/4/1
f 9/5/2 10/6/2 8/7/2 7/8/2
f 7/9/3 8/7/3 6/10/3 5/11/3
f 11/12/4 12/13/4 2/2/4 1/14/4
f 10/6/5 4/3/5 2/2/5 12/13/5
f 8/7/5 10/6/5 12/13/5 6/10/5
f 5/15/4 6/10/4 12/13/4 11/12/4
f 3/16/2 4/3/2 10/6/2 9/5/2
f 13/17/1 14/18/1 16/19/1 15/20/1
f 21/21/2 22/22/2 20/23/2 19/24/2
f 19/25/3 20/23/3 18/26/3 17/27/3
f 23/28/4 24/29/4 14/18/4 13/30/4
f 22/22/5 16/19/5 14/18/5 24/29/5
f 20/23/5 22/22/5 24/29/5 18/26/5
f 17/31/4 18/26/4 24/29/4 23/28/4
f 15/32/2 16/19/2 22/22/2 21/21/2
f 25/33/1 26/34/1 28/35/1 27/36/1
f 33/37/2 34/38/2 32/39/2 31/40/2
f 31/41/3 32/39/3 30/42/3 29/43/3
f 35/44/4 36/45/4 26/34/4 25/46/4
f 34/38/5 28/35/5 26/34/5 36/45/5
f 32/39/5 34/38/5 36/45/5 30/42/5
f 29/47/4 30/42/4 36/45/4 35/44/4
f 27/48/2 28/35/2 34/38/2 33/37/2
f 53/49/3 55/50/6 39/51/6 37/52/3
f 143/53/7 53/54/7 37/55/7 133/56/7
f 44/57/8 43/58/9 45/59/10 46/60/11
f 54/61/1 38/62/1 40/63/12 56/64/13
f 42/65/14 58/66/14 65/67/15 49/68/15
f 39/69/16 42/65/17 41/70/18 40/71/12
f 55/72/6 58/66/19 42/65/19 39/69/6
f 138/73/20 44/57/20 46/60/21 140/74/21
f 135/75/22 137/76/23 43/77/9 40/78/24
f 40/79/24 43/58/9 44/57/8 39/80/25
f 46/60/11 45/59/10 47/81/26 48/82/27
f 140/74/21 46/60/21 48/82/28 142/83/28
f 40/63/12 41/84/18 57/85/29 56/64/13
f 47/81/30 141/86/30 142/83/30 48/82/30
f 39/80/31 44/57/20 138/73/20 134/87/31
f 38/88/2 136/89/2 135/75/22 40/78/24
f 45/90/10 139/91/32 141/92/33 47/93/26
f 43/77/9 137/76/34 139/91/32 45/90/10
f 37/94/4 39/95/31 134/96/31 133/97/4
f 54/98/5 146/99/5 136/89/5 38/88/5
f 57/85/29 41/84/18 50/100/35 66/101/36
f 41/70/18 42/65/17 49/68/37 50/102/35
f 68/103/38 52/104/38 51/105/38 67/106/38
f 49/68/15 65/67/15 67/106/39 51/105/39
f 66/101/36 50/100/35 52/107/40 68/108/41
f 50/102/35 49/68/37 51/105/42 52/104/40
f 60/109/43 62/110/44 61/111/45 59/112/46
f 55/72/47 56/113/13 57/114/29 58/66/48
f 148/115/49 150/116/50 62/110/50 60/109/49
f 145/117/51 56/118/52 59/119/46 147/120/53
f 56/121/52 55/122/54 60/109/43 59/112/46
f 62/110/44 64/123/55 63/124/56 61/111/45
f 150/116/50 152/125/57 64/123/57 62/110/50
f 63/124/58 64/123/58 152/125/58 151/126/58
f 55/122/59 144/127/59 148/115/49 60/109/49
f 54/98/4 56/118/52 145/117/51 146/99/4
f 61/128/45 63/129/56 151/130/60 149/131/61
f 59/119/46 61/128/45 149/131/61 147/120/62
f 53/132/2 143/133/2 144/134/59 55/135/59
f 57/114/29 66/136/36 65/67/63 58/66/48
f 66/136/36 68/103/41 67/106/64 65/67/63
f 85/137/3 87/138/6 71/139/6 69/140/3
f 195/141/7 85/142/7 69/143/7 185/144/7
f 76/145/8 75/146/9 77/147/65 78/148/66
f 86/149/1 70/150/1 72/151/12 88/152/13
f 74/153/14 90/154/14 97/155/15 81/156/15
f 71/157/16 74/153/17 73/158/18 72/159/12
f 87/160/6 90/154/19 74/153/19 71/157/6
f 190/161/20 76/145/20 78/148/21 192/162/21
f 187/163/22 189/164/23 75/165/9 72/166/24
f 72/167/24 75/146/9 76/145/8 71/168/25
f 78/148/66 77/147/65 79/169/67 80/170/68
f 192/162/21 78/148/21 80/170/28 194/171/28
f 72/151/12 73/172/18 89/173/29 88/152/13
f 79/169/69 193/174/69 194/171/69 80/170/69
f 71/168/31 76/145/20 190/161/20 186/175/31
f 70/176/2 188/177/2 187/163/22 72/166/24
f 77/178/65 191/179/32 193/180/33 79/181/67
f 75/165/9 189/164/34 191/179/32 77/178/65
f 69/182/4 71/183/31 186/184/31 185/185/4
f 86/186/5 198/187/5 188/177/5 70/176/5
f 89/173/29 73/172/18 82/188/35 98/189/36
f 73/158/18 74/153/17 81/156/37 82/190/35
f 100/191/38 84/192/38 83/193/38 99/194/38
f 81/156/15 97/155/15 99/194/39 83/193/39
f 98/189/36 82/188/35 84/195/40 100/196/41
f 82/190/35 81/156/37 83/193/42 84/192/40
f 92/197/43 94/198/70 93/199/71 91/200/46
f 87/160/47 88/201/13 89/202/29 90/154/48
f 200/203/49 202/204/50 94/198/50 92/197/49
f 197/205/51 88/206/52 91/207/46 199/208/53
f 88/209/52 87/210/54 92/197/43 91/200/46
f 94/198/70 96/211/72 95/212/73 93/199/71
f 202/204/50 204/213/57 96/211/57 94/198/50
f 95/212/74 96/211/74 204/213/74 203/214/74
f 87/210/59 196/215/59 200/203/49 92/197/49
f 86/186/4 88/206/52 197/205/51 198/187/4
f 93/216/71 95/217/73 203/218/60 201/219/61
f 91/207/46 93/216/71 201/219/61 199/208/62
f 85/220/2 195/221/2 196/222/59 87/223/59
f 89/202/29 98/224/36 97/155/63 90/154/48
f 98/224/36 100/191/41 99/194/64 97/155/63
f 117/225/1 101/226/1 103/227/75 119/228/75
f 143/53/7 133/56/7 101/229/7 117/230/7
f 108/231/76 110/232/77 109/233/78 107/234/79
f 118/235/3 120/236/80 104/237/81 102/238/3
f 106/239/82 113/240/83 129/241/83 122/242/82
f 103/243/84 104/244/81 105/245/85 106/239/86
f 119/246/75 103/243/75 106/239/87 122/242/87
f 138/73/20 140/74/21 110/232/21 108/231/20
f 135/75/22 104/247/88 107/248/79 137/76/23
f 104/249/88 103/250/89 108/231/76 107/234/79
f 110/232/77 112/251/90 111/252/91 109/233/78
f 140/74/21 142/83/28 112/251/28 110/232/21
f 104/237/81 120/236/80 121/253/92 105/254/85
f 111/252/30 112/251/30 142/83/30 141/86/30
f 103/250/31 134/87/31 138/73/20 108/231/20
f 102/255/2 104/247/88 135/75/22 136/89/2
f 109/256/78 111/257/91 141/92/33 139/91/32
f 107/248/79 109/256/78 139/91/32 137/76/34
f 101/258/4 133/97/4 134/96/31 103/259/31
f 118/260/5 102/255/5 136/89/5 146/99/5
f 121/253/92 130/261/93 114/262/94 105/254/85
f 105/245/85 114/263/94 113/240/95 106/239/86
f 132/264/96 131/265/96 115/266/96 116/267/96
f 113/240/83 115/266/97 131/265/97 129/241/83
f 130/261/93 132/268/98 116/269/99 114/262/94
f 114/263/94 116/267/99 115/266/100 113/240/95
f 124/270/101 123/271/102 125/272/103 126/273/104
f 119/246/105 122/242/106 121/274/92 120/275/80
f 148/115/49 124/270/49 126/273/50 150/116/50
f 145/117/51 147/120/53 123/276/102 120/277/107
f 120/278/107 123/271/102 124/270/101 119/279/108
f 126/273/104 125/272/103 127/280/109 128/281/110
f 150/116/50 126/273/50 128/281/57 152/125/57
f 127/280/58 151/126/58 152/125/58 128/281/58
f 119/279/59 124/270/49 148/115/49 144/127/59
f 118/260/4 146/99/4 145/117/51 120/277/107
f 125/282/103 149/131/61 151/130/60 127/283/109
f 123/276/102 147/120/62 149/131/61 125/282/103
f 117/284/2 119/285/59 144/134/59 143/133/2
f 121/274/92 122/242/106 129/241/111 130/286/93
f 130/286/93 129/241/111 131/265/112 132/264/98
f 169/287/1 153/288/1 155/289/75 171/290/75
f 195/141/7 185/144/7 153/291/7 169/292/7
f 160/293/76 162/294/113 161/295/114 159/296/79
f 170/297/3 172/298/80 156/299/81 154/300/3
f 158/301/82 165/302/83 181/303/83 174/304/82
f 155/305/84 156/306/81 157/307/85 158/301/86
f 171/308/75 155/305/75 158/301/87 174/304/87
f 190/161/20 192/162/21 162/294/21 160/293/20
f 187/163/22 156/309/88 159/310/79 189/164/23
f 156/311/88 155/312/89 160/293/76 159/296/79
f 162/294/113 164/313/115 163/314/116 161/295/114
f 192/162/21 194/171/28 164/313/28 162/294/21
f 156/299/81 172/298/80 173/315/92 157/316/85
f 163/314/69 164/313/69 194/171/69 193/174/69
f 155/312/31 186/175/31 190/161/20 160/293/20
f 154/317/2 156/309/88 187/163/22 188/177/2
f 161/318/114 163/319/116 193/180/33 191/179/32
f 159/310/79 161/318/114 191/179/32 189/164/34
f 153/320/4 185/185/4 186/184/31 155/321/31
f 170/322/5 154/317/5 188/177/5 198/187/5
f 173/315/92 182/323/93 166/324/94 157/316/85
f 157/307/85 166/325/94 165/302/95 158/301/86
f 184/326/96 183/327/96 167/328/96 168/329/96
f 165/302/83 167/328/97 183/327/97 181/303/83
f 182/323/93 184/330/98 168/331/99 166/324/94
f 166/325/94 168/329/99 167/328/100 165/302/95
f 176/332/101 175/333/102 177/334/117 178/335/118
f 171/308/105 174/304/106 173/336/92 172/337/80
f 200/203/49 176/332/49 178/335/50 202/204/50
f 197/205/51 199/208/53 175/338/102 172/339/107
f 172/340/107 175/333/102 176/332/101 171/341/108
f 178/335/118 177/334/117 179/342/119 180/343/120
f 202/204/50 178/335/50 180/343/57 204/213/57
f 179/342/74 203/214/74 204/213/74 180/343/74
f 171/341/59 176/332/49 200/203/49 196/215/59
f 170/322/4 198/187/4 197/205/51 172/339/107
f 177/344/117 201/219/61 203/218/60 179/345/119
f 175/338/102 199/208/62 201/219/61 177/344/117
f 169/346/2 171/347/59 196/222/59 195/221/2
f 173/336/92 174/304/106 181/303/111 182/348/93
f 182/348/93 181/303/111 183/327/112 184/326/98
