# Blender v2.82 (sub 7) OBJ File: 'Clock.blend'
# www.blender.org
mtllib Clock.mtl
o Clock
v -0.000160 0.061264 -0.008620
v 0.060484 0.017204 -0.008620
v 0.037320 -0.054087 -0.008620
v -0.037640 -0.054087 -0.008620
v -0.060804 0.017204 -0.008620
v -0.000160 0.061264 0.053566
v 0.060484 0.017204 0.053566
v 0.037320 -0.054087 0.053566
v -0.037640 -0.054087 0.053566
v -0.060804 0.017204 0.053566
v 0.015001 0.050249 0.039326
v 0.045323 0.028219 0.039326
v 0.673757 0.893186 0.039326
v 0.643435 0.915216 0.039326
v -0.038774 -0.050600 0.024754
v -0.059671 0.013716 0.024754
v -0.605741 -0.151687 0.027051
v -0.579355 -0.232896 0.027051
v -0.000000 1.300000 0.000000
v -0.650000 1.125833 0.000000
v -1.125833 0.650000 0.000000
v -1.300000 0.000000 0.000000
v -1.125833 -0.650000 0.000000
v -0.650000 -1.125833 0.000000
v -0.000000 -1.300000 0.000000
v 0.650000 -1.125833 0.000000
v 1.125833 -0.650000 0.000000
v 1.300000 -0.000000 0.000000
v 1.125833 0.650000 0.000000
v 0.650001 1.125833 0.000000
v -0.000000 -0.000000 0.000000
v -0.000000 1.300000 0.200000
v -0.650000 1.125833 0.200000
v -1.125833 0.650000 0.200000
v -1.300000 0.000000 0.200000
v -1.125833 -0.650000 0.200000
v -0.650000 -1.125833 0.200000
v -0.000000 -1.300000 0.200000
v 0.650000 -1.125833 0.200000
v 1.125833 -0.650000 0.200000
v 1.300000 -0.000000 0.200000
v 1.125833 0.650000 0.200000
v 0.650001 1.125833 0.200000
v -0.000000 1.560000 0.039357
v -0.780000 1.351000 0.039357
v -1.351000 0.780000 0.039357
v -1.560000 0.000000 0.039357
v -1.351000 -0.780000 0.039357
v -0.780000 -1.351000 0.039357
v -0.000000 -1.560000 0.039357
v 0.780000 -1.351000 0.039357
v 1.350999 -0.780000 0.039357
v 1.560000 -0.000001 0.039357
v 1.351000 0.780000 0.039357
v 0.780001 1.350999 0.039357
v -0.000000 1.560000 -0.150000
v -0.780000 1.351000 -0.150000
v -1.351000 0.780000 -0.150000
v -1.560000 0.000000 -0.150000
v -1.351000 -0.780000 -0.150000
v -0.780000 -1.351000 -0.150000
v -0.000000 -1.560000 -0.150000
v 0.780000 -1.351000 -0.150000
v 1.350999 -0.780000 -0.150000
v 1.560000 -0.000001 -0.150000
v 1.351000 0.780000 -0.150000
v 0.780001 1.350999 -0.150000
vt 0.178151 0.997285
vt 0.158815 0.975799
vt 0.178722 0.962797
vt 0.185776 0.980335
vt 0.199832 0.942373
vt 0.223457 0.951791
vt 0.213288 0.970917
vt 0.197974 0.958786
vt 0.204518 0.998886
vt 0.199906 0.983484
vt 0.177291 0.944097
vt 0.223457 0.986628
vt 0.942370 0.001114
vt 0.952585 0.001114
vt 0.952585 0.292502
vt 0.942370 0.292502
vt 0.001114 0.963920
vt 0.001114 0.945489
vt 0.156587 0.942373
vt 0.156587 0.965644
vt 0.646030 0.749188
vt 0.500000 0.500000
vt 0.751060 0.642788
vt 0.357212 0.751060
vt 0.501872 0.788818
vt 0.749188 0.353970
vt 0.642788 0.248940
vt 0.353970 0.250812
vt 0.248940 0.357212
vt 0.250812 0.646030
vt 0.788818 0.498128
vt 0.498128 0.211181
vt 0.211181 0.501872
vt 0.838905 0.496317
vt 0.795342 0.666263
vt 0.496317 0.161095
vt 0.666263 0.204658
vt 0.161094 0.503683
vt 0.204658 0.333737
vt 0.672642 0.791659
vt 0.503683 0.838905
vt 0.333737 0.795342
vt 0.791659 0.327357
vt 0.327358 0.208341
vt 0.208341 0.672642
vt 0.107155 0.733908
vt 0.042832 0.506148
vt 0.957167 0.493852
vt 0.898992 0.723259
vt 0.493852 0.042832
vt 0.723259 0.101007
vt 0.101007 0.276740
vt 0.733908 0.892844
vt 0.506148 0.957167
vt 0.276740 0.898993
vt 0.892844 0.266092
vt 0.266092 0.107155
vt 0.057183 0.766071
vt -0.016526 0.509016
vt 1.016526 0.490984
vt 0.951833 0.750455
vt 0.490984 -0.016526
vt 0.750455 0.048167
vt 0.048167 0.249545
vt 0.766071 0.942816
vt 0.509016 1.016526
vt 0.249545 0.951833
vt 0.942817 0.233929
vt 0.233929 0.057183
vn 0.0000 1.0000 0.0000
vn -0.9511 0.3090 -0.0000
vn -0.5878 -0.8090 -0.0000
vn 0.5878 -0.8090 -0.0000
vn 0.9511 0.3090 0.0000
vn 0.0000 -0.0000 1.0000
vn 0.0038 0.0012 1.0000
vn -0.8660 -0.5000 0.0000
vn -1.0000 0.0000 0.0000
vn -0.5000 0.8660 0.0000
vn 0.8660 0.5000 0.0000
vn 1.0000 0.0000 0.0000
vn -0.5000 -0.8660 0.0000
vn 0.5000 -0.8660 0.0000
vn -0.0000 -1.0000 0.0000
vn -0.8660 0.5000 0.0000
vn 0.5000 0.8660 0.0000
vn 0.8660 -0.5000 0.0000
vn -0.5256 -0.0000 0.8507
vn -0.4552 0.2628 0.8507
vn -0.7709 0.4451 0.4557
vn -0.8901 -0.0000 0.4557
vn 0.4552 0.2628 0.8507
vn 0.5256 -0.0000 0.8507
vn 0.8901 -0.0000 0.4557
vn 0.7709 0.4451 0.4557
vn 0.2628 -0.4552 0.8507
vn -0.0000 -0.5256 0.8507
vn -0.0000 -0.8901 0.4557
vn 0.4451 -0.7709 0.4557
vn -0.4552 -0.2628 0.8507
vn -0.7709 -0.4451 0.4557
vn 0.2628 0.4552 0.8507
vn 0.4451 0.7709 0.4557
vn -0.2628 0.4552 0.8507
vn 0.0000 0.5256 0.8507
vn 0.0000 0.8901 0.4557
vn -0.4451 0.7709 0.4557
vn 0.4552 -0.2628 0.8507
vn 0.7709 -0.4451 0.4557
vn -0.2628 -0.4552 0.8507
vn -0.4451 -0.7709 0.4557
usemtl ClockMat
s 1
f 1/1/1 5/2/2 10/3/2 6/4/1
f 4/5/3 3/6/4 8/7/4 9/8/3
f 2/9/5 1/1/1 6/4/1 7/10/5
f 5/11/2 4/5/3 9/8/3 10/3/2
f 3/12/4 2/9/5 7/10/5 8/7/4
f 7/10/6 6/4/6 10/3/6 9/8/6 8/7/6
f 11/13/6 12/14/6 13/15/6 14/16/6
f 15/17/7 16/18/7 17/19/7 18/20/7
f 30/21/6 31/22/6 29/23/6
f 20/24/6 31/22/6 19/25/6
f 27/26/6 31/22/6 26/27/6
f 24/28/6 31/22/6 23/29/6
f 19/25/6 31/22/6 30/21/6
f 21/30/6 31/22/6 20/24/6
f 28/31/6 31/22/6 27/26/6
f 25/32/6 31/22/6 24/28/6
f 22/33/6 31/22/6 21/30/6
f 29/23/6 31/22/6 28/31/6
f 26/27/6 31/22/6 25/32/6
f 23/29/6 31/22/6 22/33/6
f 29/23/8 28/31/9 41/34/9 42/35/8
f 26/27/10 25/32/1 38/36/1 39/37/10
f 23/29/11 22/33/12 35/38/12 36/39/11
f 30/21/13 29/23/8 42/35/8 43/40/13
f 20/24/14 19/25/15 32/41/15 33/42/14
f 27/26/16 26/27/10 39/37/10 40/43/16
f 24/28/17 23/29/11 36/39/11 37/44/17
f 19/25/15 30/21/13 43/40/13 32/41/15
f 21/30/18 20/24/14 33/42/14 34/45/18
f 28/31/9 27/26/16 40/43/16 41/34/9
f 25/32/1 24/28/17 37/44/17 38/36/1
f 22/33/12 21/30/18 34/45/18 35/38/12
f 35/38/19 34/45/20 46/46/21 47/47/22
f 42/35/23 41/34/24 53/48/25 54/49/26
f 39/37/27 38/36/28 50/50/29 51/51/30
f 36/39/31 35/38/19 47/47/22 48/52/32
f 43/40/33 42/35/23 54/49/26 55/53/34
f 33/42/35 32/41/36 44/54/37 45/55/38
f 40/43/39 39/37/27 51/51/30 52/56/40
f 37/44/41 36/39/31 48/52/32 49/57/42
f 32/41/36 43/40/33 55/53/34 44/54/37
f 34/45/20 33/42/35 45/55/38 46/46/21
f 41/34/24 40/43/39 52/56/40 53/48/25
f 38/36/28 37/44/41 49/57/42 50/50/29
f 47/47/22 46/46/21 58/58/16 59/59/9
f 54/49/26 53/48/25 65/60/12 66/61/11
f 51/51/30 50/50/29 62/62/15 63/63/14
f 48/52/32 47/47/22 59/59/9 60/64/8
f 55/53/34 54/49/26 66/61/11 67/65/17
f 45/55/38 44/54/37 56/66/1 57/67/10
f 52/56/40 51/51/30 63/63/14 64/68/18
f 49/57/42 48/52/32 60/64/8 61/69/13
f 44/54/37 55/53/34 67/65/17 56/66/1
f 46/46/21 45/55/38 57/67/10 58/58/16
f 53/48/25 52/56/40 64/68/18 65/60/12
f 50/50/29 49/57/42 61/69/13 62/62/15
