# Blender v2.82 (sub 7) OBJ File: 'Curtain.blend'
# www.blender.org
mtllib Curtain.mtl
o Curtain
v 7.000000 10.000000 -2.984263
v 7.000000 10.130293 -2.930294
v 7.000000 10.184262 -2.800000
v 7.000000 10.130293 -2.669706
v 7.000000 10.000000 -2.615737
v 7.000000 9.869706 -2.669706
v 7.000000 9.815737 -2.800000
v 7.000000 9.869706 -2.930294
v 7.393088 9.869706 -2.407295
v 7.540881 10.000000 -2.631814
v 7.454306 10.184262 -2.500294
v 7.515523 9.869706 -2.593292
v 7.515523 10.130293 -2.593292
v 7.367730 10.000000 -2.368774
v 7.454306 9.815737 -2.500294
v 7.393088 10.130293 -2.407295
v 7.873150 10.000000 -2.078777
v 7.822435 10.130293 -2.055704
v 7.700000 10.184262 -1.999999
v 7.577564 10.130293 -1.944296
v 7.526849 10.000000 -1.921223
v 7.577564 9.869706 -1.944296
v 7.700000 9.815737 -1.999999
v 7.822435 9.869706 -2.055704
v 7.873150 10.000000 0.552284
v 7.822435 10.130293 0.552284
v 7.700000 10.184262 0.552284
v 7.577564 10.130293 0.552284
v 7.526849 10.000000 0.552284
v 7.577564 9.869706 0.552284
v 7.700000 9.815737 0.552284
v 7.822435 9.869706 0.552284
v 7.534665 9.999999 -2.039779
v 7.534665 10.070435 -2.010604
v 7.534665 10.099609 -1.940169
v 7.534665 10.070435 -1.869734
v 7.534665 9.999999 -1.840559
v 7.534665 9.929564 -1.869734
v 7.534665 9.900389 -1.940169
v 7.534665 9.929564 -2.010604
v 4.400000 -0.400001 -1.832000
v 4.400000 -0.400001 -2.051960
v 7.400000 -0.400001 -1.832000
v 7.400000 -0.400001 -2.051960
v 4.400000 10.040291 -1.832000
v 4.400000 10.099999 -1.891709
v 4.400000 10.051785 -1.829078
v 4.400000 10.099999 -1.992251
v 4.400000 10.040291 -2.051960
v 4.400000 10.082512 -2.034472
v 7.400000 10.099999 -1.891709
v 7.400000 10.040291 -1.832000
v 7.400000 10.051785 -1.829078
v 7.400000 10.040291 -2.051960
v 7.400000 10.099999 -1.992251
v 7.400000 10.082512 -2.034472
v 7.400000 8.788204 -1.832000
v 4.400000 8.788204 -1.832000
v 4.400000 9.727082 -2.051960
v 7.400000 9.727082 -2.051960
v 6.900000 -0.400001 -2.236993
v 4.900000 -0.400001 -2.236993
v 6.400000 -0.400001 -2.051960
v 5.900000 -0.400001 -2.236993
v 5.400000 -0.400001 -2.051960
v 4.900000 10.099999 -1.992251
v 6.900000 10.099999 -1.992251
v 5.400000 10.099999 -1.992251
v 5.900000 10.099999 -1.992251
v 6.400000 10.099999 -1.992251
v 4.900000 10.082512 -2.034472
v 6.900000 10.082512 -2.034472
v 5.400000 10.082512 -2.034472
v 5.900000 10.082512 -2.034472
v 6.400000 10.082512 -2.034472
v 6.900000 10.040291 -2.051960
v 4.900000 10.040291 -2.051960
v 6.400000 10.040291 -2.051960
v 5.900000 10.040291 -2.051960
v 5.400000 10.040291 -2.051960
v 6.900000 10.099999 -1.891709
v 4.900000 10.099999 -1.891709
v 6.400000 10.099999 -1.891709
v 5.900000 10.099999 -1.891709
v 5.400000 10.099999 -1.891709
v 6.900000 10.051785 -1.829078
v 4.900000 10.051785 -1.829078
v 6.400000 10.051785 -1.829078
v 5.900000 10.051785 -1.829078
v 5.400000 10.051785 -1.829078
v 6.665487 9.697889 -1.824634
v 5.117809 9.722102 -1.826295
v 6.400000 9.805231 -1.832000
v 5.900000 9.900340 -1.832000
v 5.400000 9.805231 -1.832000
v 6.900000 9.587132 -1.817033
v 4.900000 9.587132 -1.817033
v 4.900000 9.231230 -2.141024
v 6.900000 9.231230 -2.141024
v 5.400000 9.727082 -2.051960
v 5.900000 9.231230 -2.141024
v 6.400000 9.727082 -2.051960
v -7.000000 10.000000 -2.984263
v -7.000000 10.130293 -2.930294
v -7.000000 10.184262 -2.800000
v -7.000000 10.130293 -2.669706
v -7.000000 10.000000 -2.615737
v -7.000000 9.869706 -2.669706
v -7.000000 9.815737 -2.800000
v -7.000000 9.869706 -2.930294
v 0.000000 10.000000 -2.984263
v 0.000000 10.130293 -2.930294
v 0.000000 10.184262 -2.800000
v 0.000000 10.130293 -2.669706
v 0.000000 10.000000 -2.615737
v 0.000000 9.869706 -2.669706
v 0.000000 9.815737 -2.800000
v 0.000000 9.869706 -2.930294
v -7.393088 9.869706 -2.407295
v -7.540881 10.000000 -2.631814
v -7.454306 10.184262 -2.500294
v -7.515523 9.869706 -2.593292
v -7.515523 10.130293 -2.593292
v -7.367730 10.000000 -2.368774
v -7.454306 9.815737 -2.500294
v -7.393088 10.130293 -2.407295
v -7.873150 10.000000 -2.078777
v -7.822435 10.130293 -2.055704
v -7.700000 10.184262 -1.999999
v -7.577564 10.130293 -1.944296
v -7.526849 10.000000 -1.921223
v -7.577564 9.869706 -1.944296
v -7.700000 9.815737 -1.999999
v -7.822435 9.869706 -2.055704
v -7.873150 10.000000 0.552284
v -7.822435 10.130293 0.552284
v -7.700000 10.184262 0.552284
v -7.577564 10.130293 0.552284
v -7.526849 10.000000 0.552284
v -7.577564 9.869706 0.552284
v -7.700000 9.815737 0.552284
v -7.822435 9.869706 0.552284
v -7.534665 9.999999 -2.039779
v -7.534665 10.070435 -2.010604
v -7.534665 10.099609 -1.940169
v -7.534665 10.070435 -1.869734
v -7.534665 9.999999 -1.840559
v -7.534665 9.929564 -1.869734
v -7.534665 9.900389 -1.940169
v -7.534665 9.929564 -2.010604
v 0.000000 9.999999 -2.039779
v 0.000000 10.070435 -2.010604
v 0.000000 10.099609 -1.940169
v 0.000000 10.070435 -1.869734
v 0.000000 9.999999 -1.840559
v 0.000000 9.929564 -1.869734
v 0.000000 9.900389 -1.940169
v 0.000000 9.929564 -2.010604
v -4.400000 -0.400001 -1.832000
v -4.400000 -0.400001 -2.051960
v -7.400000 -0.400001 -1.832000
v -7.400000 -0.400001 -2.051960
v -4.400000 10.040291 -1.832000
v -4.400000 10.099999 -1.891709
v -4.400000 10.051785 -1.829078
v -4.400000 10.099999 -1.992251
v -4.400000 10.040291 -2.051960
v -4.400000 10.082512 -2.034472
v -7.400000 10.099999 -1.891709
v -7.400000 10.040291 -1.832000
v -7.400000 10.051785 -1.829078
v -7.400000 10.040291 -2.051960
v -7.400000 10.099999 -1.992251
v -7.400000 10.082512 -2.034472
v -7.400000 8.788204 -1.832000
v -4.400000 8.788204 -1.832000
v -4.400000 9.727082 -2.051960
v -7.400000 9.727082 -2.051960
v -6.900000 -0.400001 -2.236993
v -4.900000 -0.400001 -2.236993
v -6.400000 -0.400001 -2.051960
v -5.900000 -0.400001 -2.236993
v -5.400000 -0.400001 -2.051960
v -4.900000 10.099999 -1.992251
v -6.900000 10.099999 -1.992251
v -5.400000 10.099999 -1.992251
v -5.900000 10.099999 -1.992251
v -6.400000 10.099999 -1.992251
v -4.900000 10.082512 -2.034472
v -6.900000 10.082512 -2.034472
v -5.400000 10.082512 -2.034472
v -5.900000 10.082512 -2.034472
v -6.400000 10.082512 -2.034472
v -6.900000 10.040291 -2.051960
v -4.900000 10.040291 -2.051960
v -6.400000 10.040291 -2.051960
v -5.900000 10.040291 -2.051960
v -5.400000 10.040291 -2.051960
v -6.900000 10.099999 -1.891709
v -4.900000 10.099999 -1.891709
v -6.400000 10.099999 -1.891709
v -5.900000 10.099999 -1.891709
v -5.400000 10.099999 -1.891709
v -6.900000 10.051785 -1.829078
v -4.900000 10.051785 -1.829078
v -6.400000 10.051785 -1.829078
v -5.900000 10.051785 -1.829078
v -5.400000 10.051785 -1.829078
v -6.665487 9.697889 -1.824634
v -5.117809 9.722102 -1.826295
v -6.400000 9.805231 -1.832000
v -5.900000 9.900340 -1.832000
v -5.400000 9.805231 -1.832000
v -6.900000 9.587132 -1.817033
v -4.900000 9.587132 -1.817033
v -4.900000 9.231230 -2.141024
v -6.900000 9.231230 -2.141024
v -5.400000 9.727082 -2.051960
v -5.900000 9.231230 -2.141024
v -6.400000 9.727082 -2.051960
vt 0.665847 0.404297
vt 0.665847 0.417680
vt 0.001562 0.417683
vt 0.001562 0.404298
vt 0.665847 0.431063
vt 0.001562 0.431069
vt 0.665847 0.444447
vt 0.665847 0.457830
vt 0.001563 0.457840
vt 0.001563 0.444454
vt 0.665847 0.364146
vt 0.665847 0.377530
vt 0.001562 0.377527
vt 0.001562 0.364142
vt 0.665847 0.390913
vt 0.001562 0.390913
vt 0.665847 0.350763
vt 0.001562 0.350756
vt 0.006736 0.529241
vt 0.018034 0.525869
vt 0.016181 0.577735
vt 0.002941 0.580029
vt 0.092308 0.483826
vt 0.106337 0.481250
vt 0.104783 0.529026
vt 0.090375 0.530233
vt 0.025478 0.464494
vt 0.040013 0.460964
vt 0.041025 0.521805
vt 0.028800 0.523014
vt 0.054652 0.464038
vt 0.067225 0.472012
vt 0.064250 0.525520
vt 0.053318 0.522808
vt 0.040891 0.575060
vt 0.028618 0.575776
vt 0.075843 0.528825
vt 0.091998 0.580997
vt 0.078418 0.580162
vt 0.079125 0.480119
vt 0.065572 0.577830
vt 0.053164 0.575818
vt 0.001562 0.481370
vt 0.013180 0.472857
vt 0.105590 0.579520
vt 0.027543 0.818955
vt 0.014758 0.818914
vt 0.106337 0.818520
vt 0.093462 0.818574
vt 0.080588 0.818660
vt 0.068181 0.818767
vt 0.055398 0.818878
vt 0.041471 0.818956
vt 0.001958 0.818862
vt 0.706980 0.895494
vt 0.697478 0.895424
vt 0.697478 0.350965
vt 0.706980 0.351035
vt 0.687976 0.895354
vt 0.687976 0.350895
vt 0.678474 0.895285
vt 0.668972 0.895215
vt 0.668972 0.350756
vt 0.678474 0.350826
vt 0.735487 0.895703
vt 0.725984 0.895633
vt 0.725984 0.351174
vt 0.735487 0.351243
vt 0.716482 0.895563
vt 0.716482 0.351104
vt 0.744989 0.895772
vt 0.744989 0.351313
vt 0.160105 0.745678
vt 0.160090 0.698225
vt 0.164427 0.698224
vt 0.164442 0.745677
vt 0.962688 0.318469
vt 0.992625 0.318234
vt 0.996667 0.319872
vt 0.998366 0.323888
vt 0.998438 0.333482
vt 0.993882 0.339492
vt 0.992783 0.339222
vt 0.873459 0.340126
vt 0.873457 0.009065
vt 0.992783 0.009969
vt 0.993882 0.009699
vt 0.998438 0.015709
vt 0.998366 0.025303
vt 0.996666 0.029319
vt 0.992625 0.030958
vt 0.962688 0.030722
vt 0.150547 0.698227
vt 0.150563 0.745681
vt 0.143063 0.745684
vt 0.143045 0.698229
vt 0.992300 0.078799
vt 0.914840 0.078399
vt 0.150564 0.460968
vt 0.150547 0.508419
vt 0.143045 0.508417
vt 0.143064 0.460965
vt 0.246547 0.571960
vt 0.171904 0.479505
vt 0.246547 0.460964
vt 0.235855 0.483146
vt 0.002321 0.022412
vt 0.001851 0.073140
vt 0.002500 0.001562
vt 0.002321 0.326782
vt 0.002501 0.347632
vt 0.160105 0.460971
vt 0.160089 0.508421
vt 0.001851 0.276054
vt 0.914840 0.270793
vt 0.270338 0.503970
vt 0.249671 0.491125
vt 0.317810 0.460964
vt 0.317810 0.579790
vt 0.141937 0.745684
vt 0.111759 0.677550
vt 0.109461 0.530679
vt 0.141938 0.460964
vt 0.164426 0.508422
vt 0.164442 0.460973
vt 0.168779 0.460974
vt 0.168763 0.508423
vt 0.168764 0.698223
vt 0.168779 0.745675
vt 0.992300 0.270392
vt 0.001743 0.225324
vt 0.962143 0.222575
vt 0.001562 0.174597
vt 0.914534 0.174596
vt 0.001743 0.123871
vt 0.962143 0.126617
vt 0.119645 0.650769
vt 0.143043 0.650772
vt 0.128670 0.603323
vt 0.143043 0.603323
vt 0.119644 0.555878
vt 0.143042 0.555873
vt 0.150544 0.650772
vt 0.150544 0.603323
vt 0.150543 0.555873
vt 0.168758 0.555873
vt 0.164421 0.555873
vt 0.168759 0.603322
vt 0.164422 0.603322
vt 0.168759 0.650771
vt 0.164422 0.650772
vt 0.160084 0.555873
vt 0.160085 0.603322
vt 0.160085 0.650772
vt 0.992161 0.222501
vt 0.992071 0.174596
vt 0.992161 0.126690
vt 0.665847 0.404297
vt 0.665847 0.417680
vt 0.665847 0.431063
vt 0.665847 0.444447
vt 0.665847 0.457830
vt 0.665847 0.364146
vt 0.665847 0.377530
vt 0.665847 0.390913
vt 0.665847 0.350763
vt 0.006736 0.529241
vt 0.002941 0.580029
vt 0.016181 0.577735
vt 0.018034 0.525869
vt 0.092308 0.483826
vt 0.090375 0.530233
vt 0.104783 0.529026
vt 0.106337 0.481250
vt 0.025478 0.464494
vt 0.028800 0.523014
vt 0.041025 0.521805
vt 0.040013 0.460964
vt 0.054652 0.464038
vt 0.053318 0.522808
vt 0.064250 0.525520
vt 0.067225 0.472012
vt 0.028618 0.575776
vt 0.040891 0.575060
vt 0.075843 0.528825
vt 0.078418 0.580162
vt 0.091998 0.580997
vt 0.079125 0.480119
vt 0.053164 0.575818
vt 0.065572 0.577830
vt 0.001562 0.481370
vt 0.013180 0.472857
vt 0.105590 0.579520
vt 0.014758 0.818914
vt 0.027543 0.818955
vt 0.093462 0.818574
vt 0.106337 0.818520
vt 0.068181 0.818767
vt 0.080588 0.818660
vt 0.041471 0.818956
vt 0.055398 0.818878
vt 0.001958 0.818862
vt 0.706980 0.895494
vt 0.697478 0.895424
vt 0.687976 0.895354
vt 0.678474 0.895285
vt 0.668972 0.895215
vt 0.735487 0.895703
vt 0.725984 0.895633
vt 0.716482 0.895563
vt 0.744989 0.895772
vt 0.160105 0.745678
vt 0.164442 0.745677
vt 0.164427 0.698224
vt 0.160090 0.698225
vt 0.962688 0.318469
vt 0.873459 0.340126
vt 0.992783 0.339222
vt 0.993882 0.339492
vt 0.998438 0.333482
vt 0.998366 0.323888
vt 0.996667 0.319872
vt 0.992625 0.318234
vt 0.873457 0.009065
vt 0.962688 0.030722
vt 0.992625 0.030958
vt 0.996666 0.029319
vt 0.998366 0.025303
vt 0.998438 0.015709
vt 0.993882 0.009699
vt 0.992783 0.009969
vt 0.150547 0.698227
vt 0.143045 0.698229
vt 0.143063 0.745684
vt 0.150563 0.745681
vt 0.914840 0.078399
vt 0.992300 0.078799
vt 0.150564 0.460968
vt 0.143064 0.460965
vt 0.143045 0.508417
vt 0.150547 0.508419
vt 0.246547 0.571960
vt 0.235855 0.483146
vt 0.246547 0.460964
vt 0.171904 0.479505
vt 0.002321 0.022412
vt 0.001851 0.073140
vt 0.002500 0.001562
vt 0.002321 0.326782
vt 0.002501 0.347632
vt 0.160105 0.460971
vt 0.160089 0.508421
vt 0.001851 0.276054
vt 0.914840 0.270793
vt 0.270338 0.503970
vt 0.317810 0.579790
vt 0.317810 0.460964
vt 0.249671 0.491125
vt 0.111759 0.677550
vt 0.141937 0.745684
vt 0.141938 0.460964
vt 0.109461 0.530679
vt 0.164426 0.508422
vt 0.168763 0.508423
vt 0.168779 0.460974
vt 0.164442 0.460973
vt 0.168779 0.745675
vt 0.168764 0.698223
vt 0.992300 0.270392
vt 0.962143 0.222575
vt 0.001743 0.225324
vt 0.914534 0.174596
vt 0.001562 0.174597
vt 0.962143 0.126617
vt 0.001743 0.123871
vt 0.143043 0.650772
vt 0.119645 0.650769
vt 0.143043 0.603323
vt 0.128670 0.603323
vt 0.143042 0.555873
vt 0.119644 0.555878
vt 0.150544 0.650772
vt 0.150544 0.603323
vt 0.150543 0.555873
vt 0.164421 0.555873
vt 0.168758 0.555873
vt 0.164422 0.603322
vt 0.168759 0.603322
vt 0.164422 0.650772
vt 0.168759 0.650771
vt 0.160084 0.555873
vt 0.160085 0.603322
vt 0.160085 0.650772
vt 0.992161 0.222501
vt 0.992071 0.174596
vt 0.992161 0.126690
vn 0.2176 0.6649 -0.7145
vn 0.2676 0.0000 -0.9635
vn 0.0000 0.0000 -1.0000
vn 0.0000 0.7071 -0.7071
vn 0.2176 -0.6649 -0.7145
vn 0.0000 -0.7071 -0.7071
vn 0.0445 -0.9966 -0.0685
vn -0.2045 -0.7327 0.6490
vn 0.0000 -0.7071 0.7071
vn 0.0000 -1.0000 0.0000
vn -0.3124 0.0000 0.9499
vn -0.2045 0.7327 0.6490
vn 0.0000 0.7071 0.7071
vn 0.0000 0.0000 1.0000
vn 0.0445 0.9966 -0.0685
vn 0.0000 1.0000 0.0000
vn -0.5416 -0.7166 0.4396
vn 0.0580 -0.9976 -0.0378
vn 0.0543 -0.9985 -0.0083
vn -0.6904 -0.7109 0.1338
vn -0.7952 0.0000 0.6064
vn 0.7155 0.0000 -0.6986
vn 0.5495 -0.6518 -0.5226
vn 0.0580 0.9976 -0.0378
vn 0.5495 0.6518 -0.5226
vn 0.9619 0.0000 -0.2733
vn 0.7234 -0.6626 -0.1938
vn -0.5416 0.7166 0.4396
vn -0.9855 0.0000 0.1696
vn -0.6904 0.7109 0.1338
vn 0.0543 0.9985 -0.0083
vn 0.7234 0.6626 -0.1938
vn 0.7225 -0.6914 0.0000
vn -0.7225 -0.6914 0.0000
vn -1.0000 0.0000 0.0000
vn -0.7225 0.6914 0.0000
vn 0.7225 0.6914 0.0000
vn 1.0000 0.0000 0.0000
vn -0.6657 0.7319 -0.1455
vn 0.0000 0.9808 -0.1951
vn -0.6302 0.5490 -0.5490
vn 0.7444 0.0406 -0.6664
vn 0.6736 0.1728 -0.7186
vn 0.6302 0.5490 -0.5490
vn 0.6657 0.7318 -0.1455
vn 0.6413 0.7264 0.2472
vn 0.5761 0.3611 0.7332
vn 0.6839 0.0026 0.7296
vn 0.9846 0.0016 0.1746
vn -0.9846 0.0017 0.1746
vn -0.6836 0.0008 0.7298
vn -0.5765 0.3593 0.7338
vn -0.6413 0.7264 0.2472
vn -0.6736 0.1728 -0.7186
vn -0.7444 0.0406 -0.6664
vn 0.0000 0.9467 0.3222
vn -0.0009 0.4407 0.8976
vn 0.0000 0.2338 -0.9723
vn 0.0000 0.0239 -0.9997
vn 0.0007 0.4425 0.8967
vn 0.0020 0.0059 1.0000
vn 0.0215 0.0093 0.9997
vn -0.7944 0.0029 -0.6073
vn 0.0000 0.0049 -1.0000
vn 0.7944 0.0029 -0.6073
vn -0.0209 0.0099 0.9997
vn -0.0031 0.0035 1.0000
vn 0.0000 0.0608 -0.9981
vn 0.0046 -0.0049 1.0000
vn 0.0023 0.4388 0.8986
vn 0.0000 -0.0147 0.9999
vn 0.0000 0.4350 0.9004
vn -0.0057 -0.0026 1.0000
vn -0.0028 0.4396 0.8982
vn -0.2176 0.6649 -0.7145
vn -0.2676 0.0000 -0.9635
vn -0.2176 -0.6649 -0.7145
vn -0.0445 -0.9966 -0.0685
vn 0.2045 -0.7327 0.6490
vn 0.3124 0.0000 0.9499
vn 0.2045 0.7327 0.6490
vn -0.0445 0.9966 -0.0685
vn 0.5416 -0.7166 0.4396
vn 0.6904 -0.7109 0.1338
vn -0.0543 -0.9985 -0.0083
vn -0.0580 -0.9976 -0.0378
vn 0.7952 0.0000 0.6064
vn -0.5495 -0.6518 -0.5226
vn -0.7155 0.0000 -0.6986
vn -0.5495 0.6518 -0.5226
vn -0.0580 0.9976 -0.0378
vn -0.7234 -0.6626 -0.1938
vn -0.9619 0.0000 -0.2733
vn 0.5416 0.7166 0.4396
vn 0.6904 0.7109 0.1338
vn 0.9855 0.0000 0.1696
vn -0.7234 0.6626 -0.1938
vn -0.0543 0.9985 -0.0083
vn 0.6657 0.7319 -0.1455
vn -0.9846 0.0016 0.1746
vn -0.6839 0.0026 0.7296
vn -0.5761 0.3611 0.7332
vn -0.6657 0.7318 -0.1455
vn 0.9846 0.0017 0.1746
vn 0.5765 0.3593 0.7338
vn 0.6836 0.0008 0.7298
vn 0.0009 0.4407 0.8976
vn -0.0007 0.4425 0.8967
vn -0.0215 0.0093 0.9997
vn -0.0020 0.0059 1.0000
vn 0.0209 0.0099 0.9997
vn 0.0031 0.0035 1.0000
vn -0.0023 0.4388 0.8986
vn -0.0046 -0.0049 1.0000
vn 0.0028 0.4396 0.8982
vn 0.0057 -0.0026 1.0000
usemtl CurtainMat
s 1
f 2/1/1 1/2/2 111/3/3 112/4/4
f 1/2/2 8/5/5 118/6/6 111/3/3
f 7/7/7 6/8/8 116/9/9 117/10/10
f 5/11/11 4/12/12 114/13/13 115/14/14
f 3/15/15 2/1/1 112/4/4 113/16/16
f 8/5/5 7/7/7 117/10/10 118/6/6
f 6/17/8 5/11/11 115/14/14 116/18/9
f 4/12/12 3/15/15 113/16/16 114/13/13
f 9/19/17 15/20/18 23/21/19 22/22/20
f 5/23/11 6/24/8 9/25/17 14/26/21
f 8/27/5 1/28/2 10/29/22 12/30/23
f 2/31/1 3/32/15 11/33/24 13/34/25
f 12/30/23 10/29/22 17/35/26 24/36/27
f 16/37/28 14/26/21 21/38/29 20/39/30
f 3/32/15 4/40/12 16/37/28 11/33/24
f 13/34/25 11/33/24 19/41/31 18/42/32
f 1/28/2 2/31/1 13/34/25 10/29/22
f 6/43/8 7/44/7 15/20/18 9/19/17
f 4/40/12 5/23/11 14/26/21 16/37/28
f 15/20/18 12/30/23 24/36/27 23/21/19
f 11/33/24 16/37/28 20/39/30 19/41/31
f 7/44/7 8/27/5 12/30/23 15/20/18
f 10/29/22 13/34/25 18/42/32 17/35/26
f 14/26/21 9/25/17 22/45/20 21/38/29
f 23/21/19 24/36/27 32/46/33 31/47/10
f 21/38/29 22/45/20 30/48/34 29/49/35
f 19/41/31 20/39/30 28/50/36 27/51/16
f 17/35/26 18/42/32 26/52/37 25/53/38
f 24/36/27 17/35/26 25/53/38 32/46/33
f 22/22/20 23/21/19 31/47/10 30/54/34
f 20/39/30 21/38/29 29/49/35 28/50/36
f 18/42/32 19/41/31 27/51/16 26/52/37
f 34/55/4 33/56/3 151/57/3 152/58/4
f 33/56/3 40/59/6 158/60/6 151/57/3
f 39/61/10 38/62/9 156/63/9 157/64/10
f 37/65/14 36/66/13 154/67/13 155/68/14
f 35/69/16 34/55/4 152/58/4 153/70/16
f 40/59/6 39/61/10 157/64/10 158/60/6
f 38/71/9 37/65/14 155/68/14 156/72/9
f 36/66/13 35/69/16 153/70/16 154/67/13
f 48/73/39 66/74/40 71/75/4 50/76/41
f 60/77/42 54/78/43 56/79/44 55/80/45 51/81/46 53/82/47 52/83/48 57/84/49
f 58/85/50 45/86/51 47/87/52 46/88/53 48/89/39 50/90/41 49/91/54 59/92/55
f 82/93/56 46/94/53 47/95/52 87/96/57
f 66/74/40 48/73/39 46/94/53 82/93/56
f 59/92/55 49/91/54 77/97/58 98/98/59
f 51/99/46 81/100/56 86/101/60 53/102/47
f 57/103/49 52/104/48 91/105/61 96/106/62
f 42/107/63 59/92/55 98/98/59 62/108/64
f 41/109/35 58/85/50 59/92/55 42/107/63
f 44/110/65 60/77/42 57/84/49 43/111/38
f 55/112/45 67/113/40 81/100/56 51/99/46
f 61/114/64 99/115/59 60/77/42 44/110/65
f 97/116/66 92/117/67 45/118/51 58/119/50
f 87/96/57 47/95/52 45/120/51 92/121/67
f 53/102/47 86/101/60 91/122/61 52/123/48
f 72/124/4 56/125/44 54/126/43 76/127/58
f 50/76/41 71/75/4 77/128/58 49/129/54
f 99/115/59 76/130/58 54/78/43 60/77/42
f 67/113/40 55/112/45 56/125/44 72/124/4
f 99/115/59 61/114/64 63/131/64 102/132/68
f 102/132/68 63/131/64 64/133/64 101/134/59
f 101/134/59 64/133/64 65/135/64 100/136/68
f 100/136/68 65/135/64 62/108/64 98/98/59
f 87/96/57 92/121/67 95/137/69 90/138/70
f 90/138/70 95/137/69 94/139/71 89/140/72
f 89/140/72 94/139/71 93/141/73 88/142/74
f 88/142/74 93/141/73 91/122/61 86/101/60
f 82/93/56 87/96/57 90/138/70 85/143/56
f 85/143/56 90/138/70 89/140/72 84/144/56
f 84/144/56 89/140/72 88/142/74 83/145/56
f 83/145/56 88/142/74 86/101/60 81/100/56
f 72/124/4 76/127/58 78/146/58 75/147/4
f 75/147/4 78/146/58 79/148/58 74/149/4
f 74/149/4 79/148/58 80/150/58 73/151/4
f 73/151/4 80/150/58 77/128/58 71/75/4
f 67/113/40 72/124/4 75/147/4 70/152/40
f 70/152/40 75/147/4 74/149/4 69/153/40
f 69/153/40 74/149/4 73/151/4 68/154/40
f 68/154/40 73/151/4 71/75/4 66/74/40
f 76/130/58 99/115/59 102/132/68 78/155/58
f 78/155/58 102/132/68 101/134/59 79/156/58
f 79/156/58 101/134/59 100/136/68 80/157/58
f 80/157/58 100/136/68 98/98/59 77/97/58
f 66/74/40 82/93/56 85/143/56 68/154/40
f 68/154/40 85/143/56 84/144/56 69/153/40
f 69/153/40 84/144/56 83/145/56 70/152/40
f 70/152/40 83/145/56 81/100/56 67/113/40
f 104/158/75 112/4/4 111/3/3 103/159/76
f 103/159/76 111/3/3 118/6/6 110/160/77
f 109/161/78 117/10/10 116/9/9 108/162/79
f 107/163/80 115/14/14 114/13/13 106/164/81
f 105/165/82 113/16/16 112/4/4 104/158/75
f 110/160/77 118/6/6 117/10/10 109/161/78
f 108/166/79 116/18/9 115/14/14 107/163/80
f 106/164/81 114/13/13 113/16/16 105/165/82
f 119/167/83 132/168/84 133/169/85 125/170/86
f 107/171/80 124/172/87 119/173/83 108/174/79
f 110/175/77 122/176/88 120/177/89 103/178/76
f 104/179/75 123/180/90 121/181/91 105/182/82
f 122/176/88 134/183/92 127/184/93 120/177/89
f 126/185/94 130/186/95 131/187/96 124/172/87
f 105/182/82 121/181/91 126/185/94 106/188/81
f 123/180/90 128/189/97 129/190/98 121/181/91
f 103/178/76 120/177/89 123/180/90 104/179/75
f 108/191/79 119/167/83 125/170/86 109/192/78
f 106/188/81 126/185/94 124/172/87 107/171/80
f 125/170/86 133/169/85 134/183/92 122/176/88
f 121/181/91 129/190/98 130/186/95 126/185/94
f 109/192/78 125/170/86 122/176/88 110/175/77
f 120/177/89 127/184/93 128/189/97 123/180/90
f 124/172/87 131/187/96 132/193/84 119/173/83
f 133/169/85 141/194/10 142/195/34 134/183/92
f 131/187/96 139/196/38 140/197/33 132/193/84
f 129/190/98 137/198/16 138/199/37 130/186/95
f 127/184/93 135/200/35 136/201/36 128/189/97
f 134/183/92 142/195/34 135/200/35 127/184/93
f 132/168/84 140/202/33 141/194/10 133/169/85
f 130/186/95 138/199/37 139/196/38 131/187/96
f 128/189/97 136/201/36 137/198/16 129/190/98
f 144/203/4 152/58/4 151/57/3 143/204/3
f 143/204/3 151/57/3 158/60/6 150/205/6
f 149/206/10 157/64/10 156/63/9 148/207/9
f 147/208/14 155/68/14 154/67/13 146/209/13
f 145/210/16 153/70/16 152/58/4 144/203/4
f 150/205/6 158/60/6 157/64/10 149/206/10
f 148/211/9 156/72/9 155/68/14 147/208/14
f 146/209/13 154/67/13 153/70/16 145/210/16
f 166/212/99 168/213/44 189/214/4 184/215/40
f 178/216/55 175/217/100 170/218/101 171/219/102 169/220/53 173/221/103 174/222/41 172/223/54
f 176/224/104 177/225/42 167/226/43 168/227/44 166/228/99 164/229/46 165/230/105 163/231/106
f 200/232/56 205/233/107 165/234/105 164/235/46
f 184/215/40 200/232/56 164/235/46 166/212/99
f 177/225/42 216/236/59 195/237/58 167/226/43
f 169/238/53 171/239/102 204/240/108 199/241/56
f 175/242/100 214/243/109 209/244/110 170/245/101
f 160/246/65 180/247/64 216/236/59 177/225/42
f 159/248/38 160/246/65 177/225/42 176/224/104
f 162/249/63 161/250/35 175/217/100 178/216/55
f 173/251/103 169/238/53 199/241/56 185/252/40
f 179/253/64 162/249/63 178/216/55 217/254/59
f 215/255/111 176/256/104 163/257/106 210/258/112
f 205/233/107 210/259/112 163/260/106 165/234/105
f 171/239/102 170/261/101 209/262/110 204/240/108
f 190/263/4 194/264/58 172/265/54 174/266/41
f 168/213/44 167/267/43 195/268/58 189/214/4
f 217/254/59 178/216/55 172/223/54 194/269/58
f 185/252/40 190/263/4 174/266/41 173/251/103
f 217/254/59 220/270/68 181/271/64 179/253/64
f 220/270/68 219/272/59 182/273/64 181/271/64
f 219/272/59 218/274/68 183/275/64 182/273/64
f 218/274/68 216/236/59 180/247/64 183/275/64
f 205/233/107 208/276/113 213/277/114 210/259/112
f 208/276/113 207/278/72 212/279/71 213/277/114
f 207/278/72 206/280/115 211/281/116 212/279/71
f 206/280/115 204/240/108 209/262/110 211/281/116
f 200/232/56 203/282/56 208/276/113 205/233/107
f 203/282/56 202/283/56 207/278/72 208/276/113
f 202/283/56 201/284/56 206/280/115 207/278/72
f 201/284/56 199/241/56 204/240/108 206/280/115
f 190/263/4 193/285/4 196/286/58 194/264/58
f 193/285/4 192/287/4 197/288/58 196/286/58
f 192/287/4 191/289/4 198/290/58 197/288/58
f 191/289/4 189/214/4 195/268/58 198/290/58
f 185/252/40 188/291/40 193/285/4 190/263/4
f 188/291/40 187/292/40 192/287/4 193/285/4
f 187/292/40 186/293/40 191/289/4 192/287/4
f 186/293/40 184/215/40 189/214/4 191/289/4
f 194/269/58 196/294/58 220/270/68 217/254/59
f 196/294/58 197/295/58 219/272/59 220/270/68
f 197/295/58 198/296/58 218/274/68 219/272/59
f 198/296/58 195/237/58 216/236/59 218/274/68
f 184/215/40 186/293/40 203/282/56 200/232/56
f 186/293/40 187/292/40 202/283/56 203/282/56
f 187/292/40 188/291/40 201/284/56 202/283/56
f 188/291/40 185/252/40 199/241/56 201/284/56
