# Blender v2.82 (sub 7) OBJ File: 'Door.blend'
# www.blender.org
mtllib Door.mtl
o Door
v -3.671151 -0.000040 -0.600000
v 3.671151 -0.000040 -0.600000
v 3.671151 -0.000040 0.600000
v -3.671151 -0.000040 0.600000
v -3.671151 12.736040 0.600000
v 3.671151 12.736040 0.600000
v 3.671151 12.736040 -0.600000
v -3.671151 12.736040 -0.600000
v 2.997423 -0.000040 -0.600000
v 2.997423 -0.000040 0.600000
v -2.997423 -0.000040 0.600000
v -2.997423 -0.000040 -0.600000
v -2.997423 12.177905 0.600000
v 2.997423 12.177905 -0.600000
v 2.997423 12.177905 0.600000
v -2.997423 12.177905 -0.600000
v -3.164170 -0.000040 -0.308198
v -3.164170 12.177905 -0.308198
v 3.224026 -0.000040 -0.308198
v 3.224026 12.177905 -0.308198
v -2.279937 0.999918 -0.308198
v -2.299523 11.093041 -0.308198
v 1.793851 0.999918 -0.308198
v 1.813437 11.093041 -0.308198
v -2.279937 3.252160 -0.308198
v 1.793851 3.252160 -0.308198
v -3.164170 3.854602 -0.308198
v 3.224026 3.854602 -0.308198
v 0.265566 0.999918 -0.308198
v 0.245980 11.093041 -0.308198
v -0.243043 -0.000040 -0.308198
v -0.243043 12.177905 -0.308198
v 0.265566 3.252160 -0.308198
v -0.751653 0.999918 -0.308198
v 2.302460 0.397475 -0.308198
v 2.031747 4.141092 -0.106272
v -0.751653 3.252160 -0.308198
v -2.788547 0.397475 -0.308198
v -2.517834 4.141092 -0.106272
v -0.243043 0.397475 -0.308198
v 0.027669 4.141092 -0.106272
v -0.054057 0.597476 -0.308198
v 2.113474 0.597476 -0.308198
v 2.113474 3.654603 -0.308198
v -0.054057 3.654603 -0.308198
v -2.599561 0.597476 -0.308198
v -2.599561 3.654603 -0.308198
v -0.432029 0.597476 -0.308198
v -0.432029 3.654603 -0.308198
v -0.054057 0.597475 -0.106272
v 2.113474 0.597475 -0.106272
v 2.113474 3.654603 -0.106272
v -0.054057 3.654603 -0.106272
v -2.599561 0.597475 -0.106272
v -2.599561 3.654603 -0.106272
v -0.432029 0.597475 -0.106272
v -0.432029 3.654603 -0.106272
v 0.111047 0.772202 -0.106272
v 1.948370 0.772202 -0.106272
v 1.948370 3.479876 -0.106272
v 0.111047 3.479876 -0.106272
v -2.434457 0.772202 -0.106272
v -2.434457 3.479876 -0.106272
v -0.597133 0.772202 -0.106272
v -0.597133 3.479876 -0.106272
v -2.517834 4.780728 -0.106272
v 2.031747 4.780728 -0.106272
v -3.164170 5.067218 -0.308198
v 3.224026 5.067218 -0.308198
v 0.027669 4.780728 -0.106272
v -0.513756 4.141092 -0.106272
v 2.302460 3.854602 -0.308198
v -0.513756 4.780728 -0.106272
v 1.813437 5.754567 -0.308198
v -2.788547 3.854602 -0.308198
v -0.243043 3.854602 -0.308198
v 0.245980 5.754567 -0.308198
v -2.299523 5.754567 -0.308198
v -0.054057 4.054602 -0.106272
v 2.113474 4.054602 -0.106272
v -0.054057 4.867218 -0.106272
v 2.113474 4.867218 -0.106272
v -2.599561 4.054602 -0.106272
v -0.432029 4.054602 -0.106272
v -0.432029 4.867218 -0.106272
v -2.599561 4.867218 -0.106272
v -0.054057 4.054602 -0.308198
v 2.113474 4.054602 -0.308198
v -0.054057 4.867218 -0.308198
v 2.113474 4.867218 -0.308198
v -2.599561 4.054602 -0.308198
v -0.432029 4.054602 -0.308198
v -0.432029 4.867218 -0.308198
v -2.599561 4.867218 -0.308198
v 0.196213 4.194886 -0.308198
v 1.863204 4.194886 -0.308198
v 0.196213 4.726935 -0.308198
v 1.863204 4.726935 -0.308198
v -2.349291 4.194886 -0.308198
v -0.682299 4.194886 -0.308198
v -0.682299 4.726935 -0.308198
v -2.349291 4.726935 -0.308198
v 2.302460 5.067218 -0.308198
v 2.302460 11.780390 -0.308198
v -0.732067 11.093041 -0.308198
v -0.732067 5.754567 -0.308198
v -2.788547 5.067218 -0.308198
v -2.788547 11.780390 -0.308198
v -0.243043 11.780390 -0.308198
v -0.243043 5.067218 -0.308198
v 2.113474 5.267218 -0.308198
v 2.113474 11.580390 -0.308198
v -0.054057 11.580390 -0.308198
v -0.054057 5.267218 -0.308198
v -2.599561 5.267218 -0.308198
v -2.599561 11.580390 -0.308198
v -0.432029 11.580390 -0.308198
v -0.432029 5.267218 -0.308198
v 2.113474 5.267218 -0.106272
v 2.113474 11.580390 -0.106272
v -0.054057 11.580390 -0.106272
v -0.054057 5.267218 -0.106272
v -2.599561 5.267218 -0.106272
v -2.599561 11.580390 -0.106272
v -0.432029 11.580390 -0.106272
v -0.432029 5.267218 -0.106272
v 1.971916 5.417026 -0.106272
v 1.971916 11.430582 -0.106272
v 0.087501 11.430582 -0.106272
v 0.087501 5.417026 -0.106272
v -2.458003 5.417026 -0.106272
v -2.458003 11.430582 -0.106272
v -0.573587 11.430582 -0.106272
v -0.573587 5.417026 -0.106272
v 2.572659 7.130376 -0.425838
v 2.499292 7.110718 -0.425838
v 2.445585 7.057010 -0.425838
v 2.425926 6.983644 -0.425838
v 2.445585 6.910277 -0.425838
v 2.499292 6.856569 -0.425838
v 2.572659 6.836911 -0.425838
v 2.646025 6.856569 -0.425838
v 2.699733 6.910277 -0.425838
v 2.719392 6.983644 -0.425838
v 2.699734 7.057010 -0.425838
v 2.646026 7.110718 -0.425838
v 2.445585 7.057010 -0.498123
v 2.425926 6.983644 -0.498123
v 2.719392 6.983644 -0.498123
v 2.699734 7.057010 -0.498123
v 2.572659 6.836911 -0.498123
v 2.646025 6.856569 -0.498123
v 2.445585 6.910277 -0.498123
v 2.646026 7.110718 -0.498123
v 2.572659 7.130376 -0.498123
v 2.499292 7.110718 -0.498123
v 2.699733 6.910277 -0.498123
v 2.499292 6.856569 -0.498123
v 2.402988 7.081604 -0.620203
v 2.768578 6.983644 -0.620203
v 2.572659 6.787724 -0.620203
v 2.572659 7.179563 -0.620203
v 2.376740 6.983644 -0.620203
v 2.742330 7.081604 -0.620203
v 2.670618 6.813973 -0.620203
v 2.402988 6.885684 -0.620203
v 2.670619 7.153315 -0.620203
v 2.474700 7.153315 -0.620203
v 2.742330 6.885684 -0.620203
v 2.474699 6.813973 -0.620203
v 2.572659 7.144780 -0.730179
v 2.572659 7.102568 -0.771655
v 2.513197 7.086635 -0.771655
v 2.492090 7.123192 -0.730179
v 2.469668 7.043106 -0.771655
v 2.433110 7.064212 -0.730180
v 2.453735 6.983644 -0.771655
v 2.411522 6.983644 -0.730179
v 2.469668 6.924181 -0.771655
v 2.433110 6.903075 -0.730179
v 2.513197 6.880652 -0.771655
v 2.492090 6.844095 -0.730179
v 2.572659 6.864719 -0.771655
v 2.572659 6.822507 -0.730180
v 2.632121 6.880652 -0.771655
v 2.653227 6.844095 -0.730179
v 2.675650 6.924181 -0.771655
v 2.712208 6.903075 -0.730179
v 2.691583 6.983644 -0.771655
v 2.733796 6.983644 -0.730179
v 2.675650 7.043106 -0.771655
v 2.712208 7.064212 -0.730179
v 2.632121 7.086635 -0.771655
v 2.653228 7.123192 -0.730179
v 2.858446 6.285818 -0.171655
v 2.783938 6.105939 -0.171655
v 2.858446 7.129257 -0.171655
v 2.783938 7.309134 -0.171655
v 2.286871 6.285818 -0.171655
v 2.572659 6.031431 -0.171655
v 2.361379 6.105939 -0.171655
v 2.572659 7.383643 -0.171655
v 2.286871 7.129257 -0.171655
v 2.361379 7.309134 -0.171655
v 2.572659 6.031431 -0.443267
v 2.286871 6.285818 -0.443267
v 2.361379 6.105939 -0.443267
v 2.858446 6.285818 -0.443267
v 2.783938 6.105939 -0.443267
v 2.286871 7.129257 -0.443267
v 2.361379 7.309134 -0.443267
v 2.572659 7.383643 -0.443267
v 2.858446 7.129257 -0.443267
v 2.783938 7.309134 -0.443267
vt 0.617446 0.734056
vt 0.549009 0.734056
vt 0.549009 0.007711
vt 0.617446 0.007711
vt 0.923853 0.426446
vt 0.923853 0.007711
vt 0.992289 0.007711
vt 0.992289 0.426446
vt 0.739727 0.007711
vt 0.808164 0.007711
vt 0.808164 0.734055
vt 0.739727 0.734055
vt 0.701303 0.007711
vt 0.701304 0.702224
vt 0.632867 0.702224
vt 0.632867 0.007711
vt 0.892022 0.388023
vt 0.823585 0.388023
vt 0.823585 0.046134
vt 0.892022 0.046134
vt 0.442150 0.734056
vt 0.442149 0.039542
vt 0.510586 0.039542
vt 0.510586 0.734056
vt 0.193403 0.402819
vt 0.189444 0.683215
vt 0.110627 0.681263
vt 0.116396 0.399870
vt 0.399395 0.249032
vt 0.402743 0.033439
vt 0.426727 0.007711
vt 0.425272 0.249489
vt 0.071608 0.345779
vt 0.065893 0.738082
vt 0.009600 0.763344
vt 0.010542 0.343942
vt 0.235223 0.034107
vt 0.067621 0.034627
vt 0.008714 0.009083
vt 0.235140 0.007958
vt 0.234811 0.737097
vt 0.403863 0.736933
vt 0.426727 0.762059
vt 0.234902 0.763438
vt 0.069943 0.249158
vt 0.007711 0.252164
vt 0.401620 0.345442
vt 0.426192 0.344499
vt 0.189995 0.086465
vt 0.187692 0.197749
vt 0.114415 0.196789
vt 0.115589 0.084829
vt 0.356507 0.086093
vt 0.352829 0.198413
vt 0.279322 0.195628
vt 0.282126 0.084145
vt 0.358513 0.401483
vt 0.357677 0.682671
vt 0.278809 0.680696
vt 0.281937 0.400460
vt 0.223988 0.045485
vt 0.078314 0.046847
vt 0.080968 0.237733
vt 0.223959 0.234753
vt 0.234284 0.246578
vt 0.389064 0.236715
vt 0.391264 0.044920
vt 0.245642 0.046216
vt 0.245406 0.235544
vt 0.266854 0.211270
vt 0.269124 0.068839
vt 0.374927 0.225444
vt 0.380279 0.059968
vt 0.213270 0.060422
vt 0.092789 0.057971
vt 0.365716 0.213825
vt 0.369261 0.070017
vt 0.202467 0.070445
vt 0.200633 0.212719
vt 0.259826 0.057315
vt 0.256094 0.221022
vt 0.102299 0.069528
vt 0.102148 0.212789
vt 0.091484 0.222838
vt 0.209895 0.223976
vt 0.355434 0.288024
vt 0.353398 0.309196
vt 0.282632 0.307033
vt 0.284766 0.284897
vt 0.188702 0.287656
vt 0.186559 0.309802
vt 0.115879 0.306665
vt 0.117963 0.285453
vt 0.220645 0.259304
vt 0.082341 0.261756
vt 0.223940 0.334763
vt 0.237038 0.348144
vt 0.084948 0.333715
vt 0.386186 0.261045
vt 0.247380 0.259952
vt 0.250690 0.335404
vt 0.389130 0.332852
vt 0.201796 0.278120
vt 0.104322 0.277123
vt 0.099667 0.271844
vt 0.207642 0.273527
vt 0.200790 0.318567
vt 0.205609 0.324039
vt 0.103235 0.315739
vt 0.097564 0.320164
vt 0.368026 0.278967
vt 0.270534 0.276138
vt 0.265715 0.270669
vt 0.373668 0.274549
vt 0.269541 0.316576
vt 0.263696 0.321175
vt 0.367059 0.317512
vt 0.371727 0.322787
vt 0.081444 0.357795
vt 0.076860 0.726820
vt 0.224847 0.725228
vt 0.226376 0.358927
vt 0.393704 0.724913
vt 0.391037 0.356598
vt 0.245604 0.725959
vt 0.246882 0.359687
vt 0.210966 0.714041
vt 0.215903 0.373596
vt 0.256141 0.710788
vt 0.379613 0.713637
vt 0.097172 0.702628
vt 0.103254 0.379309
vt 0.087579 0.711510
vt 0.268704 0.380400
vt 0.371409 0.380446
vt 0.380724 0.371638
vt 0.095215 0.369090
vt 0.265603 0.701948
vt 0.202811 0.703836
vt 0.206517 0.382160
vt 0.371323 0.703369
vt 0.260614 0.370496
vt 0.260921 0.993676
vt 0.106219 0.993676
vt 0.136785 0.945653
vt 0.242453 0.953111
vt 0.269865 0.919538
vt 0.263627 0.942345
vt 0.115450 0.933634
vt 0.110112 0.909773
vt 0.116351 0.886967
vt 0.137524 0.876200
vt 0.243192 0.883659
vt 0.264528 0.895678
vt 0.119057 0.835635
vt 0.273758 0.835635
vt 0.938216 0.515990
vt 0.950632 0.518772
vt 0.945556 0.536805
vt 0.933575 0.534506
vt 0.883852 0.577965
vt 0.879107 0.565960
vt 0.899205 0.555629
vt 0.902743 0.570953
vt 0.981063 0.614671
vt 0.970106 0.622132
vt 0.957926 0.605491
vt 0.969368 0.597232
vt 0.975912 0.526148
vt 0.989375 0.530548
vt 0.982324 0.554986
vt 0.968106 0.546010
vt 0.893144 0.601938
vt 0.888744 0.589919
vt 0.906432 0.583220
vt 0.911775 0.594702
vt 0.926044 0.513155
vt 0.919228 0.533093
vt 0.872537 0.582363
vt 0.867812 0.570455
vt 0.886397 0.618126
vt 0.881777 0.606207
vt 0.897742 0.613729
vt 0.966586 0.509933
vt 0.979872 0.513652
vt 0.963117 0.522117
vt 0.998851 0.617823
vt 0.987962 0.625070
vt 0.991955 0.607460
vt 0.928621 0.501373
vt 0.941000 0.504081
vt 0.877246 0.594248
vt 0.993350 0.517823
vt 0.977211 0.632348
vt 0.953610 0.506812
vt 0.966856 0.639824
vt 0.959670 0.630037
vt 0.956789 0.540606
vt 0.951401 0.552295
vt 0.943091 0.549017
vt 0.944225 0.614009
vt 0.937511 0.595696
vt 0.949609 0.592106
vt 0.916900 0.568055
vt 0.918810 0.578062
vt 0.933401 0.548575
vt 0.958809 0.585626
vt 0.966789 0.568697
vt 0.959514 0.558062
vt 0.923901 0.586818
vt 0.921775 0.551857
vt 0.981610 0.587595
vt 0.966609 0.574765
vt 0.918735 0.607733
vt 0.933062 0.595159
vt 0.918481 0.556447
vt 0.953767 0.563077
vt 0.956770 0.571526
vt 0.952961 0.580080
vt 0.946238 0.585040
vt 0.937458 0.585874
vt 0.929362 0.581661
vt 0.924956 0.575556
vt 0.924123 0.568329
vt 0.927469 0.560357
vt 0.934828 0.555534
vt 0.941731 0.555055
vt 0.948024 0.558049
vt 0.084861 0.857413
vt 0.062482 0.903403
vt 0.070966 0.956862
vt 0.317495 0.925908
vt 0.295116 0.971898
vt 0.309011 0.872450
vn 1.0000 0.0000 0.0000
vn 0.0000 1.0000 0.0000
vn -1.0000 0.0000 0.0000
vn 0.0000 -1.0000 0.0000
vn 0.0000 0.0000 -1.0000
vn 0.7942 0.0000 -0.6077
vn 0.0000 0.6635 -0.7482
vn 0.0000 -0.6635 -0.7482
vn -0.7942 0.0000 -0.6077
vn 0.0000 -0.9663 -0.2574
vn -0.7677 0.0000 -0.6408
vn 0.7677 0.0000 -0.6408
vn 0.0000 0.9663 -0.2574
vn 0.7867 0.0000 -0.6174
vn 0.0000 -0.5134 -0.8582
vn 0.0000 0.5134 -0.8582
vn -0.7867 0.0000 -0.6174
vn -0.9808 -0.1951 0.0000
vn -0.9808 0.1951 0.0000
vn 0.9808 0.1951 0.0000
vn 0.9808 -0.1951 0.0000
vn -0.8491 -0.4903 0.1965
vn -0.9805 -0.0000 0.1965
vn -0.9993 -0.0000 0.0364
vn -0.8655 -0.4997 0.0364
vn 0.0000 -0.9805 0.1965
vn -0.4903 -0.8491 0.1965
vn -0.4997 -0.8655 0.0364
vn 0.0000 -0.9993 0.0364
vn 0.4903 0.8491 0.1965
vn 0.8491 0.4903 0.1965
vn 0.8655 0.4997 0.0364
vn 0.4997 0.8655 0.0364
vn -0.4903 0.8491 0.1965
vn 0.0000 0.9805 0.1965
vn -0.0000 0.9993 0.0364
vn -0.4997 0.8655 0.0364
vn 0.8491 -0.4903 0.1965
vn 0.4903 -0.8491 0.1965
vn 0.4997 -0.8655 0.0364
vn 0.8655 -0.4997 0.0364
vn -0.5000 -0.8660 0.0000
vn 0.8660 -0.5000 0.0000
vn 0.9805 -0.0000 0.1965
vn -0.8660 0.5000 0.0000
vn -0.5000 0.8660 0.0000
vn -0.8491 0.4903 0.1965
vn 0.5000 0.8660 0.0000
vn -0.8660 -0.5000 0.0000
vn 0.5000 -0.8660 0.0000
vn 0.8660 0.5000 0.0000
vn -0.8655 0.4997 0.0364
vn -0.7470 0.4313 -0.5059
vn -0.8626 -0.0000 -0.5059
vn 0.9993 -0.0000 0.0364
vn 0.8626 -0.0000 -0.5059
vn 0.7470 0.4313 -0.5059
vn 0.0000 -0.8626 -0.5059
vn 0.4313 -0.7470 -0.5059
vn -0.7470 -0.4313 -0.5059
vn 0.4313 0.7470 -0.5059
vn -0.0000 0.8626 -0.5059
vn -0.4313 0.7470 -0.5059
vn 0.7470 -0.4313 -0.5059
vn -0.4313 -0.7470 -0.5059
vn -0.2150 0.3724 -0.9028
vn -0.0000 0.4300 -0.9028
vn 0.2150 0.3724 -0.9028
vn 0.3724 0.2150 -0.9028
vn 0.4300 -0.0000 -0.9028
vn 0.3724 -0.2150 -0.9028
vn 0.2150 -0.3724 -0.9028
vn 0.0000 -0.4300 -0.9028
vn -0.2150 -0.3724 -0.9028
vn -0.3724 -0.2150 -0.9028
vn -0.4300 -0.0000 -0.9028
vn -0.3724 0.2150 -0.9028
vn 0.6879 0.7258 0.0000
vn -0.6879 0.7258 0.0000
vn -0.6879 -0.7258 0.0000
vn 0.6879 -0.7258 0.0000
usemtl DoorMat
s off
f 3/1/1 2/2/1 7/3/1 6/4/1
f 7/5/2 8/6/2 5/7/2 6/8/2
f 1/9/3 4/10/3 5/11/3 8/12/3
f 12/13/1 16/14/1 13/15/1 11/16/1
f 14/17/4 15/18/4 13/19/4 16/20/4
f 10/21/3 15/22/3 14/23/3 9/24/3
f 1/9/5 8/12/5 16/14/5 12/13/5
f 7/3/5 2/2/5 9/24/5 14/23/5
f 8/6/5 7/5/5 14/17/5 16/20/5
f 77/25/5 30/26/5 24/27/5 74/28/5
f 75/29/5 38/30/5 17/31/5 27/32/5
f 103/33/5 104/34/5 20/35/5 69/36/5
f 40/37/5 35/38/5 19/39/5 31/40/5
f 109/41/5 108/42/5 18/43/5 32/44/5
f 35/38/5 72/45/5 28/46/5 19/39/5
f 107/47/5 75/29/5 27/32/5 68/48/5
f 29/49/5 33/50/5 26/51/5 23/52/5
f 21/53/5 25/54/5 37/55/5 34/56/5
f 104/34/5 109/41/5 32/44/5 20/35/5
f 38/30/5 40/37/5 31/40/5 17/31/5
f 78/57/5 22/58/5 105/59/5 106/60/5
f 42/61/5 43/62/5 35/38/5 40/37/5
f 43/62/5 44/63/5 72/45/5 35/38/5
f 44/63/5 45/64/5 76/65/5 72/45/5
f 45/64/5 42/61/5 40/37/5 76/65/5
f 47/66/5 46/67/5 38/30/5 75/29/5
f 46/67/5 48/68/5 40/37/5 38/30/5
f 49/69/5 47/66/5 75/29/5 76/65/5
f 48/68/5 49/69/5 76/65/5 40/37/5
f 34/56/6 37/55/6 65/70/6 64/71/6
f 46/67/1 47/66/1 55/72/1 54/73/1
f 43/62/2 42/61/2 50/74/2 51/75/2
f 37/55/7 25/54/7 63/76/7 65/70/7
f 21/53/8 34/56/8 64/71/8 62/77/8
f 25/54/9 21/53/9 62/77/9 63/76/9
f 33/50/9 29/49/9 58/78/9 61/79/9
f 49/69/3 48/68/3 56/80/3 57/81/3
f 58/78/5 59/82/5 51/75/5 50/74/5
f 59/82/5 60/83/5 52/84/5 51/75/5
f 60/83/5 61/79/5 53/85/5 52/84/5
f 61/79/5 58/78/5 50/74/5 53/85/5
f 63/76/5 62/77/5 54/73/5 55/72/5
f 62/77/5 64/71/5 56/80/5 54/73/5
f 65/70/5 63/76/5 55/72/5 57/81/5
f 64/71/5 65/70/5 57/81/5 56/80/5
f 44/63/3 43/62/3 51/75/3 52/84/3
f 29/49/8 23/52/8 59/82/8 58/78/8
f 48/68/2 46/67/2 54/73/2 56/80/2
f 45/64/4 44/63/4 52/84/4 53/85/4
f 23/52/6 26/51/6 60/83/6 59/82/6
f 47/66/4 49/69/4 57/81/4 55/72/4
f 42/61/1 45/64/1 53/85/1 50/74/1
f 26/51/7 33/50/7 61/79/7 60/83/7
f 99/86/5 102/87/5 101/88/5 100/89/5
f 108/42/5 107/47/5 68/48/5 18/43/5
f 72/45/5 103/33/5 69/36/5 28/46/5
f 95/90/5 97/91/5 98/92/5 96/93/5
f 87/94/5 88/95/5 72/45/5 76/65/5
f 89/96/5 87/94/5 76/65/5 110/97/5
f 88/95/5 90/98/5 103/33/5 72/45/5
f 90/98/5 89/96/5 110/97/5 103/33/5
f 91/99/5 92/100/5 76/65/5 75/29/5
f 92/100/5 93/101/5 110/97/5 76/65/5
f 94/102/5 91/99/5 75/29/5 107/47/5
f 93/101/5 94/102/5 107/47/5 110/97/5
f 41/103/5 36/104/5 80/105/5 79/106/5
f 70/107/5 41/103/5 79/106/5 81/108/5
f 36/104/5 67/109/5 82/110/5 80/105/5
f 67/109/5 70/107/5 81/108/5 82/110/5
f 39/111/5 71/112/5 84/113/5 83/114/5
f 71/112/5 73/115/5 85/116/5 84/113/5
f 66/117/5 39/111/5 83/114/5 86/118/5
f 73/115/5 66/117/5 86/118/5 85/116/5
f 79/106/2 80/105/2 88/95/2 87/94/2
f 81/108/1 79/106/1 87/94/1 89/96/1
f 80/105/3 82/110/3 90/98/3 88/95/3
f 82/110/4 81/108/4 89/96/4 90/98/4
f 83/114/2 84/113/2 92/100/2 91/99/2
f 84/113/3 85/116/3 93/101/3 92/100/3
f 86/118/1 83/114/1 91/99/1 94/102/1
f 85/116/4 86/118/4 94/102/4 93/101/4
f 36/104/10 41/103/10 95/90/10 96/93/10
f 41/103/11 70/107/11 97/91/11 95/90/11
f 67/109/12 36/104/12 96/93/12 98/92/12
f 70/107/13 67/109/13 98/92/13 97/91/13
f 71/112/10 39/111/10 99/86/10 100/89/10
f 73/115/12 71/112/12 100/89/12 101/88/12
f 39/111/11 66/117/11 102/87/11 99/86/11
f 66/117/13 73/115/13 101/88/13 102/87/13
f 111/119/5 112/120/5 104/34/5 103/33/5
f 112/120/5 113/121/5 109/41/5 104/34/5
f 113/121/5 114/122/5 110/97/5 109/41/5
f 114/122/5 111/119/5 103/33/5 110/97/5
f 116/123/5 115/124/5 107/47/5 108/42/5
f 117/125/5 116/123/5 108/42/5 109/41/5
f 118/126/5 117/125/5 109/41/5 110/97/5
f 115/124/5 118/126/5 110/97/5 107/47/5
f 114/122/1 113/121/1 121/127/1 122/128/1
f 116/123/4 117/125/4 125/129/4 124/130/4
f 74/28/14 24/27/14 128/131/14 127/132/14
f 113/121/4 112/120/4 120/133/4 121/127/4
f 78/57/15 106/60/15 134/134/15 131/135/15
f 115/124/1 116/123/1 124/130/1 123/136/1
f 112/120/3 111/119/3 119/137/3 120/133/3
f 106/60/14 105/59/14 133/138/14 134/134/14
f 127/132/5 128/131/5 120/133/5 119/137/5
f 128/131/5 129/139/5 121/127/5 120/133/5
f 129/139/5 130/140/5 122/128/5 121/127/5
f 130/140/5 127/132/5 119/137/5 122/128/5
f 132/141/5 131/135/5 123/136/5 124/130/5
f 133/138/5 132/141/5 124/130/5 125/129/5
f 134/134/5 133/138/5 125/129/5 126/142/5
f 131/135/5 134/134/5 126/142/5 123/136/5
f 24/27/16 30/26/16 129/139/16 128/131/16
f 117/125/3 118/126/3 126/142/3 125/129/3
f 111/119/2 114/122/2 122/128/2 119/137/2
f 30/26/17 77/25/17 130/140/17 129/139/17
f 118/126/2 115/124/2 123/136/2 126/142/2
f 77/25/15 74/28/15 127/132/15 130/140/15
f 22/58/17 78/57/17 131/135/17 132/141/17
f 105/59/16 22/58/16 132/141/16 133/138/16
s 1
f 199/143/18 203/144/19 210/145/19 206/146/18
f 205/147/5 207/148/5 206/146/5 210/145/5 211/149/5 212/150/5 214/151/5 213/152/5 208/153/5 209/154/5
f 197/155/20 195/156/21 208/153/21 213/152/20
f 153/157/22 148/158/23 163/159/24 166/160/25
f 151/161/26 158/162/27 170/163/28 161/164/29
f 154/165/30 150/166/31 164/167/32 167/168/33
f 156/169/34 155/170/35 162/171/36 168/172/37
f 157/173/38 152/174/39 165/175/40 169/176/41
f 158/177/27 153/157/22 166/160/25 170/178/28
f 141/179/4 140/180/42 158/162/27 151/161/26
f 144/181/1 143/182/43 157/173/38 149/183/44
f 137/184/45 136/185/46 156/169/34 147/186/47
f 135/187/2 146/188/48 154/165/30 155/189/35
f 140/190/42 139/191/49 153/157/22 158/177/27
f 143/182/43 142/192/50 152/174/39 157/173/38
f 136/185/46 135/193/2 155/170/35 156/169/34
f 146/188/48 145/194/51 150/166/31 154/165/30
f 139/191/49 138/195/3 148/158/23 153/157/22
f 142/192/50 141/179/4 151/161/26 152/174/39
f 145/194/51 144/196/1 149/197/44 150/166/31
f 138/195/3 137/184/45 147/186/47 148/158/23
f 163/159/24 159/198/52 176/199/53 178/200/54
f 164/167/32 160/201/55 190/202/56 192/203/57
f 165/175/40 161/164/29 184/204/58 186/205/59
f 166/160/25 163/159/24 178/200/54 180/206/60
f 167/168/33 164/167/32 192/203/57 194/207/61
f 168/172/37 162/171/36 171/208/62 174/209/63
f 169/176/41 165/175/40 186/205/59 188/210/64
f 170/178/28 166/160/25 180/206/60 182/211/65
f 162/212/36 167/168/33 194/207/61 171/213/62
f 159/198/52 168/172/37 174/209/63 176/199/53
f 160/214/55 169/176/41 188/210/64 190/215/56
f 161/164/29 170/163/28 182/216/65 184/204/58
f 149/183/44 157/173/38 169/176/41 160/214/55
f 173/217/66 172/218/67 193/219/68 191/220/69 189/221/70 187/222/71 185/223/72 183/224/73 181/225/74 179/226/75 177/227/76 175/228/77
f 152/174/39 151/161/26 161/164/29 165/175/40
f 147/186/47 156/169/34 168/172/37 159/198/52
f 150/166/31 149/197/44 160/201/55 164/167/32
f 155/189/35 154/165/30 167/168/33 162/212/36
f 148/158/23 147/186/47 159/198/52 163/159/24
f 174/209/63 171/208/62 172/218/67 173/217/66
f 176/199/53 174/209/63 173/217/66 175/228/77
f 178/200/54 176/199/53 175/228/77 177/227/76
f 180/206/60 178/200/54 177/227/76 179/226/75
f 182/211/65 180/206/60 179/226/75 181/225/74
f 184/204/58 182/216/65 181/225/74 183/224/73
f 186/205/59 184/204/58 183/224/73 185/223/72
f 188/210/64 186/205/59 185/223/72 187/222/71
f 190/215/56 188/210/64 187/222/71 189/221/70
f 192/203/57 190/202/56 189/221/70 191/220/69
f 194/207/61 192/203/57 191/220/69 193/219/68
f 171/213/62 194/207/61 193/219/68 172/218/67
f 197/155/20 213/152/20 214/151/78 198/229/78
f 198/229/78 214/151/78 212/150/2 202/230/2
f 210/145/19 203/144/19 204/231/79 211/149/79
f 211/149/79 204/231/79 202/230/2 212/150/2
f 205/147/4 200/232/4 201/233/80 207/148/80
f 207/148/80 201/233/80 199/143/18 206/146/18
f 200/232/4 205/147/4 209/154/81 196/234/81
f 196/234/81 209/154/81 208/153/21 195/156/21
