# Blender v2.82 (sub 7) OBJ File: 'Map.blend'
# www.blender.org
mtllib Map.mtl
o Map
v -4.576001 -3.520000 0.405591
v -4.576001 3.520000 0.405591
v -4.353426 -3.297426 0.221511
v -4.353426 3.297426 0.221511
v 4.576000 -3.520000 0.405591
v 4.576000 3.520000 0.405591
v 4.353426 -3.297426 0.221511
v 4.353426 3.297426 0.221511
v -4.576001 3.520000 0.043659
v -4.576001 -3.520000 0.043659
v 4.576000 -3.520000 0.043659
v 4.576000 3.520000 0.043659
v -4.353426 3.297426 0.043659
v -4.353426 -3.297426 0.043659
v 4.353426 -3.297426 0.043659
v 4.353426 3.297426 0.043659
v 0.418829 3.283455 0.406881
v -0.418829 3.283455 0.406882
v 0.418829 3.891093 0.406881
v 0.126467 4.183455 0.406881
v 0.333198 4.097825 0.406881
v -0.418829 3.891093 0.406882
v -0.126467 4.183455 0.406882
v -0.333198 4.097825 0.406882
v -0.418829 3.283455 0.263931
v 0.418829 3.283455 0.263931
v 0.418829 3.891093 0.263931
v -0.418829 3.891093 0.263931
v -0.333198 4.097825 0.263932
v -0.126467 4.183455 0.263931
v 0.126467 4.183455 0.263931
v 0.333198 4.097825 0.263931
vt 0.056703 0.004419
vt 0.738688 0.004415
vt 0.738689 0.039476
vt 0.056703 0.039481
vt 0.078264 0.078272
vt 0.717126 0.078270
vt 0.717129 0.921727
vt 0.078267 0.921729
vt 0.056704 0.960523
vt 0.738690 0.960518
vt 0.738691 0.995579
vt 0.056705 0.995585
vt 0.988077 0.478419
vt 0.826947 0.478419
vt 0.826947 0.268951
vt 0.988077 0.268951
vt 0.039475 0.056711
vt 0.039476 0.943291
vt 0.004415 0.943291
vt 0.004415 0.056711
vt 0.755918 0.943288
vt 0.755917 0.056708
vt 0.790978 0.056708
vt 0.790978 0.943288
vt 0.717126 0.061039
vt 0.078264 0.061043
vt 0.061036 0.078272
vt 0.061038 0.921729
vt 0.734358 0.921727
vt 0.734355 0.078270
vt 0.078267 0.938960
vt 0.717129 0.938957
vt 0.838844 0.062148
vt 0.947845 0.062148
vt 0.947845 0.141217
vt 0.936702 0.168118
vt 0.909801 0.179261
vt 0.876888 0.179261
vt 0.849987 0.168118
vt 0.838844 0.141217
vt 0.869770 0.196447
vt 0.842869 0.185304
vt 0.943821 0.185304
vt 0.916920 0.196447
vt 0.966447 0.062148
vt 0.966447 0.141217
vt 0.838844 0.043546
vt 0.947845 0.043547
vt 0.832801 0.175237
vt 0.821659 0.148336
vt 0.909801 0.197863
vt 0.876888 0.197862
vt 0.965031 0.148336
vt 0.953888 0.175237
vt 0.820243 0.141217
vt 0.820243 0.062148
vt 0.948856 0.586168
vt 0.934948 0.586168
vt 0.930217 0.584208
vt 0.928257 0.579476
vt 0.928257 0.573687
vt 0.930217 0.568956
vt 0.934948 0.566996
vt 0.948856 0.566996
vn -1.0000 0.0000 0.0000
vn 0.0000 0.0000 -1.0000
vn 1.0000 0.0000 0.0000
vn 0.0000 0.0000 1.0000
vn 0.0000 -1.0000 0.0000
vn 0.0000 1.0000 0.0000
vn 0.3827 0.9239 0.0000
vn -0.3827 0.9239 0.0000
vn 0.9239 0.3827 0.0000
vn -0.9239 0.3827 0.0000
usemtl MapMat
s off
f 1/1/1 2/2/1 9/3/1 10/4/1
f 3/5/2 4/6/2 8/7/2 7/8/2
f 11/9/3 12/10/3 6/11/3 5/12/3
f 5/13/4 6/14/4 2/15/4 1/16/4
f 10/17/5 11/18/5 5/19/5 1/20/5
f 12/21/6 9/22/6 2/23/6 6/24/6
f 13/25/2 14/26/2 10/4/2 9/3/2
f 14/27/2 15/28/2 11/18/2 10/17/2
f 16/29/2 13/30/2 9/22/2 12/21/2
f 15/31/2 16/32/2 12/10/2 11/9/2
f 4/6/3 3/5/3 14/26/3 13/25/3
f 3/5/6 7/8/6 15/28/6 14/27/6
f 8/7/5 4/6/5 13/30/5 16/29/5
f 7/8/1 8/7/1 16/32/1 15/31/1
f 26/33/2 25/34/2 28/35/2 29/36/2 30/37/2 31/38/2 32/39/2 27/40/2
f 20/41/7 21/42/7 32/39/7 31/38/7
f 24/43/8 23/44/8 30/37/8 29/36/8
f 18/45/1 22/46/1 28/35/1 25/34/1
f 17/47/5 18/48/5 25/34/5 26/33/5
f 21/49/9 19/50/9 27/40/9 32/39/9
f 23/51/6 20/52/6 31/38/6 30/37/6
f 22/53/10 24/54/10 29/36/10 28/35/10
f 19/55/3 17/56/3 26/33/3 27/40/3
f 17/57/4 19/58/4 21/59/4 20/60/4 23/61/4 24/62/4 22/63/4 18/64/4
