# Blender v2.82 (sub 7) OBJ File: 'Pencil 1.blend'
# www.blender.org
mtllib Pencil 1.mtl
o Pencil_1
v -0.000000 0.190325 0.034440
v -0.024353 0.131706 0.024353
v -0.034440 0.190325 -0.000000
v -0.024353 0.131706 -0.024353
v -0.000000 0.190325 -0.034440
v 0.024353 0.131706 -0.024353
v 0.034440 0.190325 -0.000000
v 0.024353 0.131706 0.024353
v -0.000000 0.023556 0.006922
v -0.011538 0.047454 0.011538
v -0.006922 0.023556 -0.000000
v -0.011538 0.047454 -0.011538
v -0.000000 0.023556 -0.006922
v 0.011538 0.047454 -0.011538
v 0.006921 0.023556 -0.000000
v 0.011538 0.047454 0.011538
v -0.000000 0.000381 0.002966
v -0.002098 0.000381 0.002098
v -0.002967 0.000381 -0.000000
v -0.002098 0.000381 -0.002098
v -0.000000 0.000381 -0.002966
v 0.002097 0.000381 -0.002098
v 0.002966 0.000381 -0.000000
v 0.002097 0.000381 0.002098
v -0.000000 0.786026 0.021452
v -0.015169 0.786026 0.015169
v -0.021452 0.786026 -0.000000
v -0.015169 0.786026 -0.015169
v -0.000000 0.786026 -0.021452
v 0.015169 0.786026 -0.015169
v 0.021452 0.786026 -0.000000
v 0.015169 0.786026 0.015169
v -0.000000 0.786026 0.038541
v -0.027253 0.786026 0.027253
v -0.038541 0.786026 -0.000000
v -0.027253 0.786026 -0.027253
v -0.000000 0.786026 -0.038541
v 0.027253 0.786026 -0.027253
v 0.038541 0.786026 -0.000000
v 0.027253 0.786026 0.027253
v -0.000000 1.023816 0.038541
v -0.027253 1.023816 0.027253
v -0.038541 1.023816 -0.000000
v -0.027253 1.023816 -0.027253
v -0.000000 1.023816 -0.038541
v 0.027253 1.023816 -0.027253
v 0.038541 1.023816 -0.000000
v 0.027253 1.023816 0.027253
v -0.000000 1.023816 0.023168
v -0.016382 1.023816 0.016382
v -0.023168 1.023816 -0.000000
v -0.016382 1.023816 -0.016382
v -0.000000 1.023816 -0.023168
v 0.016382 1.023816 -0.016382
v 0.023168 1.023816 -0.000000
v 0.016382 1.023816 0.016382
v -0.024353 1.016031 -0.024353
v -0.000000 1.016031 -0.034440
v -0.024353 1.016031 0.024353
v -0.034440 1.016031 -0.000000
v 0.034440 1.016031 -0.000000
v 0.024353 1.016031 0.024353
v 0.024353 1.016031 -0.024353
v -0.000000 1.016031 0.034440
v -0.000000 1.047097 0.034440
v -0.000000 1.058706 0.021874
v -0.015467 1.058706 0.015467
v -0.024353 1.047097 0.024353
v -0.021874 1.058706 -0.000000
v -0.034440 1.047097 -0.000000
v -0.015467 1.058706 -0.015467
v -0.024353 1.047097 -0.024353
v -0.000000 1.058706 -0.021874
v -0.000000 1.047097 -0.034440
v 0.015467 1.058706 -0.015467
v 0.024353 1.047097 -0.024353
v 0.021874 1.058706 -0.000000
v 0.034440 1.047097 -0.000000
v 0.015467 1.058706 0.015467
v 0.024353 1.047097 0.024353
vt 0.035037 0.087366
vt 0.035037 0.116095
vt 0.001179 0.116095
vt 0.001179 0.087366
vt 0.035037 0.144824
vt 0.035037 0.173553
vt 0.001179 0.173553
vt 0.001179 0.144824
vt 0.035037 0.058637
vt 0.001179 0.058637
vt 0.035037 0.202281
vt 0.001179 0.202282
vt 0.035037 0.231010
vt 0.001179 0.231010
vt 0.035037 0.029908
vt 0.001179 0.029908
vt 0.341147 0.314791
vt 0.418902 0.283341
vt 0.287674 0.410817
vt 0.294916 0.386879
vt 0.285407 0.292489
vt 0.338767 0.234623
vt 0.276489 0.403584
vt 0.272626 0.376726
vt 0.465294 0.364568
vt 0.406380 0.416040
vt 0.321536 0.426639
vt 0.294828 0.422056
vt 0.385337 0.360050
vt 0.311953 0.404220
vt 0.260729 0.233368
vt 0.261869 0.401843
vt 0.465294 0.442415
vt 0.295634 0.436941
vt 0.271084 0.422920
vt 0.268344 0.424916
vt 0.273147 0.429885
vt 0.275036 0.427136
vt 0.275003 0.425295
vt 0.274079 0.423893
vt 0.272882 0.422795
vt 0.266881 0.430995
vt 0.373825 0.505180
vt 0.391718 0.505180
vt 0.398846 0.522387
vt 0.366697 0.522387
vt 0.404371 0.492527
vt 0.404371 0.474633
vt 0.421579 0.467505
vt 0.421579 0.499654
vt 0.391718 0.461980
vt 0.373825 0.461980
vt 0.366697 0.444773
vt 0.398846 0.444773
vt 0.361172 0.474633
vt 0.343964 0.467505
vt 0.361172 0.492527
vt 0.343964 0.499654
vt 0.001179 0.233368
vt 0.033328 0.233368
vt 0.033328 0.492527
vt 0.001179 0.492527
vt 0.065477 0.233368
vt 0.097626 0.233368
vt 0.097626 0.492527
vt 0.065477 0.492527
vt 0.129775 0.233368
vt 0.161924 0.233368
vt 0.161924 0.492527
vt 0.129775 0.492527
vt 0.194073 0.233368
vt 0.226222 0.233368
vt 0.226222 0.492527
vt 0.194073 0.492527
vt 0.258371 0.233368
vt 0.258371 0.492527
vt 0.423937 0.499654
vt 0.423937 0.467505
vt 0.439416 0.473917
vt 0.439416 0.493242
vt 0.446669 0.444773
vt 0.478818 0.444773
vt 0.472406 0.460252
vt 0.453081 0.460252
vt 0.501551 0.467505
vt 0.486071 0.473917
vt 0.501551 0.499654
vt 0.478818 0.522387
vt 0.472406 0.506907
vt 0.486071 0.493243
vt 0.446669 0.522387
vt 0.453081 0.506907
vt 0.934935 0.058639
vt 0.998821 0.087367
vt 0.934936 0.001183
vt 0.998821 0.029911
vt 0.035037 0.001179
vt 0.998821 0.202279
vt 0.934936 0.231007
vt 0.998821 0.144823
vt 0.934935 0.173551
vt 0.934935 0.116095
vt 0.001179 0.001179
vt 0.287907 0.523443
vt 0.262485 0.503129
vt 0.279992 0.491599
vt 0.293655 0.504507
vt 0.319531 0.521672
vt 0.311227 0.504108
vt 0.341607 0.499222
vt 0.323796 0.492515
vt 0.341607 0.468059
vt 0.324226 0.475632
vt 0.320002 0.445727
vt 0.312960 0.463141
vt 0.289366 0.444773
vt 0.295918 0.462494
vt 0.265920 0.464324
vt 0.282343 0.473172
vt 0.260729 0.493730
vn 0.7071 0.0000 -0.7071
vn 0.0000 0.0000 -1.0000
vn 0.0000 0.3689 -0.9295
vn 0.6572 0.3689 -0.6572
vn -0.7071 0.0000 -0.7071
vn -1.0000 0.0000 -0.0000
vn -0.9295 0.3689 0.0000
vn -0.6572 0.3689 -0.6572
vn 1.0000 0.0000 0.0000
vn 0.9295 0.3689 -0.0000
vn -0.7071 0.0000 0.7071
vn -0.6572 0.3689 0.6572
vn -0.0000 0.0000 1.0000
vn -0.0000 0.3689 0.9295
vn 0.7071 0.0000 0.7071
vn 0.6572 0.3689 0.6572
vn -0.6950 -0.1841 -0.6950
vn -0.0000 -0.0213 -0.9998
vn -0.0000 -0.1917 -0.9814
vn -0.6890 -0.2249 -0.6890
vn -0.6950 -0.1841 0.6950
vn -0.9998 -0.0213 -0.0000
vn -0.9814 -0.1917 -0.0000
vn -0.6890 -0.2249 0.6890
vn 0.9998 -0.0213 0.0000
vn 0.6950 -0.1841 0.6950
vn 0.6890 -0.2249 0.6890
vn 0.9814 -0.1917 0.0000
vn 0.6950 -0.1841 -0.6950
vn 0.6890 -0.2249 -0.6890
vn 0.0000 -0.0213 0.9998
vn -0.0000 -0.1917 0.9814
vn -0.7293 -0.6842 -0.0000
vn -0.4509 -0.7703 0.4509
vn 0.4509 -0.7703 0.4509
vn 0.7293 -0.6842 0.0000
vn 0.4509 -0.7703 -0.4509
vn -0.0000 -0.6842 -0.7293
vn -0.4509 -0.7703 -0.4509
vn -0.0000 -0.6842 0.7293
vn 0.0000 -1.0000 0.0000
vn 0.0000 1.0000 -0.0000
vn -0.0000 0.8991 0.4377
vn -0.3095 0.8991 0.3095
vn -0.4377 0.8991 0.0000
vn -0.3095 0.8991 -0.3095
vn 0.0000 0.8991 -0.4377
vn 0.3095 0.8991 -0.3095
vn 0.4377 0.8991 -0.0000
vn 0.3095 0.8991 0.3095
usemtl Pencil1Mat
s 1
f 63/1/1 58/2/2 74/3/3 76/4/4
f 57/5/5 60/6/6 70/7/7 72/8/8
f 61/9/9 63/1/1 76/4/4 78/10/10
f 58/2/2 57/5/5 72/8/8 74/3/3
f 60/6/6 59/11/11 68/12/12 70/7/7
f 59/11/11 64/13/13 65/14/14 68/12/12
f 62/15/15 61/9/9 78/10/10 80/16/16
f 4/17/17 5/18/18 13/19/19 12/20/20
f 2/21/21 3/22/22 11/23/23 10/24/24
f 7/25/25 8/26/26 16/27/27 15/28/28
f 5/18/18 6/29/29 14/30/30 13/19/19
f 3/22/22 4/17/17 12/20/20 11/23/23
f 1/31/31 2/21/21 10/24/24 9/32/32
f 8/26/26 1/33/31 9/34/32 16/27/27
f 6/29/29 7/25/25 15/28/28 14/30/30
f 10/24/24 11/23/23 19/35/33 18/36/34
f 15/28/28 16/27/27 24/37/35 23/38/36
f 13/19/19 14/30/30 22/39/37 21/40/38
f 11/23/23 12/20/20 20/41/39 19/35/33
f 9/32/32 10/24/24 18/36/34 17/42/40
f 16/27/27 9/34/32 17/42/40 24/37/35
f 14/30/30 15/28/28 23/38/36 22/39/37
f 12/20/20 13/19/19 21/40/38 20/41/39
f 18/36/34 19/35/33 20/41/39 21/40/38 22/39/37 23/38/36 24/37/35 17/42/40
f 30/43/41 29/44/41 37/45/41 38/46/41
f 28/47/41 27/48/41 35/49/41 36/50/41
f 26/51/41 25/52/41 33/53/41 34/54/41
f 25/52/41 32/55/41 40/56/41 33/53/41
f 31/57/41 30/43/41 38/46/41 39/58/41
f 29/44/41 28/47/41 36/50/41 37/45/41
f 27/48/41 26/51/41 34/54/41 35/49/41
f 32/55/41 31/57/41 39/58/41 40/56/41
f 33/59/13 40/60/15 48/61/15 41/62/13
f 39/63/9 38/64/1 46/65/1 47/66/9
f 37/67/2 36/68/5 44/69/5 45/70/2
f 35/71/6 34/72/11 42/73/11 43/74/6
f 40/60/15 39/63/9 47/66/9 48/61/15
f 38/64/1 37/67/2 45/70/2 46/65/1
f 36/68/5 35/71/6 43/74/6 44/69/5
f 34/72/11 33/75/13 41/76/13 42/73/11
f 44/77/42 43/78/42 51/79/42 52/80/42
f 42/81/42 41/82/42 49/83/42 50/84/42
f 41/82/42 48/85/42 56/86/42 49/83/42
f 47/87/42 46/88/42 54/89/42 55/90/42
f 45/91/42 44/77/42 52/80/42 53/92/42
f 43/78/42 42/81/42 50/84/42 51/79/42
f 48/85/42 47/87/42 55/90/42 56/86/42
f 46/88/42 45/91/42 53/92/42 54/89/42
f 7/93/25 6/94/29 63/1/1 61/9/9
f 1/95/31 8/96/26 62/15/15 64/97/13
f 2/98/21 1/99/31 64/13/13 59/11/11
f 4/100/17 3/101/22 60/6/6 57/5/5
f 6/94/29 5/102/18 58/2/2 63/1/1
f 8/96/26 7/93/25 61/9/9 62/15/15
f 3/101/22 2/98/21 59/11/11 60/6/6
f 5/102/18 4/100/17 57/5/5 58/2/2
f 64/97/13 62/15/15 80/16/16 65/103/14
f 68/104/12 65/105/14 66/106/43 67/107/44
f 70/108/7 68/104/12 67/107/44 69/109/45
f 72/110/8 70/108/7 69/109/45 71/111/46
f 74/112/3 72/110/8 71/111/46 73/113/47
f 76/114/4 74/112/3 73/113/47 75/115/48
f 78/116/10 76/114/4 75/115/48 77/117/49
f 80/118/16 78/116/10 77/117/49 79/119/50
f 65/120/14 80/118/16 79/119/50 66/106/43
f 67/107/44 66/106/43 79/119/50 77/117/49 75/115/48 73/113/47 71/111/46 69/109/45
