# Blender v2.82 (sub 7) OBJ File: 'Trash Bin.blend'
# www.blender.org
mtllib Trash Bin.mtl
o Trash_Bin
v 0.000000 2.300000 -1.300000
v -0.764121 2.300000 -1.051722
v -1.236374 2.300000 -0.401722
v -1.236374 2.300000 0.401722
v -0.764121 2.300000 1.051722
v 0.000000 2.300000 1.300000
v 0.764121 2.300000 1.051722
v 1.236374 2.300000 0.401722
v 1.236374 2.300000 -0.401722
v 0.764121 2.300000 -1.051723
v 0.000000 2.300000 -1.198227
v -0.704300 2.300000 -0.969386
v -1.139581 2.300000 -0.370272
v -1.139581 2.300000 0.370272
v -0.704300 2.300000 0.969386
v 0.000000 2.300000 1.198227
v 0.704300 2.300000 0.969386
v 1.139581 2.300000 0.370273
v 1.139581 2.300000 -0.370273
v 0.704300 2.300000 -0.969386
v 0.000000 0.000000 -0.813042
v -0.000000 0.081593 -0.914190
v -0.477894 0.000000 -0.657765
v -0.537347 0.081593 -0.739595
v -0.773249 0.000000 -0.251244
v -0.869447 0.081593 -0.282500
v -0.773249 0.000000 0.251244
v -0.869447 0.081593 0.282500
v -0.477894 0.000000 0.657765
v -0.537347 0.081593 0.739595
v 0.000000 0.000000 0.813042
v 0.000000 0.081593 0.914190
v 0.477894 0.000000 0.657765
v 0.537348 0.081593 0.739595
v 0.773249 0.000000 0.251244
v 0.869446 0.081593 0.282500
v 0.773249 0.000000 -0.251244
v 0.869446 0.081593 -0.282500
v 0.477894 0.000000 -0.657765
v 0.537347 0.081593 -0.739596
v 0.000000 0.381519 -0.853410
v 0.000000 0.300000 -0.751801
v -0.441898 0.300000 -0.608220
v -0.501622 0.381519 -0.690424
v -0.715005 0.300000 -0.232319
v -0.811642 0.381519 -0.263718
v -0.715005 0.300000 0.232319
v -0.811642 0.381519 0.263718
v -0.441897 0.300000 0.608220
v -0.501622 0.381519 0.690424
v 0.000000 0.300000 0.751801
v 0.000000 0.381519 0.853410
v 0.441897 0.300000 0.608220
v 0.501622 0.381519 0.690424
v 0.715005 0.300000 0.232319
v 0.811642 0.381519 0.263718
v 0.715005 0.300000 -0.232319
v 0.811642 0.381519 -0.263718
v 0.441897 0.300000 -0.608220
v 0.501622 0.381519 -0.690424
v -1.213039 2.158919 -0.394140
v -1.176713 1.939298 -0.382337
v -1.213039 2.158919 0.394140
v -1.176713 1.939298 0.382337
v 1.176713 1.939298 0.382337
v 1.213039 2.158919 0.394140
v 1.213039 2.158919 -0.394140
v 1.176713 1.939298 -0.382337
v -1.123924 2.158919 -0.394140
v -1.090267 1.939298 -0.382337
v -1.123924 2.158919 0.394140
v -1.090267 1.939298 0.382337
v 1.090267 1.939298 0.382337
v 1.123924 2.158919 0.394140
v 1.123924 2.158919 -0.394140
v 1.090267 1.939298 -0.382337
vt 0.081417 0.823267
vt 0.323786 0.713937
vt 0.063102 0.729558
vt 0.047040 0.734842
vt 0.124951 0.907562
vt 0.124954 0.002171
vt 0.081419 0.086464
vt 0.323786 0.195795
vt 0.047042 0.174888
vt 0.063104 0.180172
vt 0.022207 0.266450
vt 0.038738 0.270006
vt 0.676347 0.931491
vt 0.711223 0.979494
vt 0.767654 0.997829
vt 0.824085 0.979494
vt 0.858961 0.931491
vt 0.858961 0.872157
vt 0.824085 0.824154
vt 0.767654 0.805818
vt 0.711223 0.824154
vt 0.676347 0.872157
vt 0.007194 0.360126
vt 0.002171 0.454865
vt 0.271589 0.388243
vt 0.859571 0.725593
vt 0.859635 0.671144
vt 0.828555 0.626449
vt 0.777257 0.609108
vt 0.724641 0.624495
vt 0.691862 0.669124
vt 0.691488 0.723566
vt 0.723674 0.767580
vt 0.775223 0.785487
vt 0.827115 0.769193
vt 0.271588 0.521488
vt 0.268056 0.454866
vt 0.022206 0.643280
vt 0.038737 0.639724
vt 0.968334 0.203112
vt 0.956905 0.199398
vt 0.905506 0.270143
vt 0.912569 0.279865
vt 0.732112 0.279865
vt 0.739175 0.270142
vt 0.687777 0.199398
vt 0.676347 0.203112
vt 0.732113 0.031487
vt 0.739176 0.041209
vt 0.822342 0.014188
vt 0.822342 0.002171
vt 0.968334 0.108240
vt 0.956904 0.111954
vt 0.822341 0.309182
vt 0.822341 0.297165
vt 0.676347 0.108239
vt 0.687777 0.111953
vt 0.912570 0.031488
vt 0.905506 0.041210
vt 0.363522 0.330815
vt 0.592314 0.355941
vt 0.602487 0.294497
vt 0.377806 0.244544
vt 0.434087 0.079234
vt 0.642573 0.176759
vt 0.672006 0.121872
vt 0.475413 0.002171
vt 0.401422 0.675909
vt 0.619307 0.601726
vt 0.602487 0.541760
vt 0.377806 0.591713
vt 0.401421 0.160348
vt 0.619307 0.234530
vt 0.434088 0.757023
vt 0.642573 0.659498
vt 0.363522 0.505443
vt 0.592314 0.480316
vt 0.588910 0.418128
vt 0.358742 0.418129
vt 0.475414 0.834086
vt 0.672006 0.714385
vt 0.705963 0.393734
vt 0.692393 0.386569
vt 0.676347 0.451326
vt 0.691693 0.451326
vt 0.745474 0.349467
vt 0.736819 0.336795
vt 0.801082 0.328770
vt 0.799345 0.313523
vt 0.859920 0.336432
vt 0.865503 0.322138
vt 0.908373 0.370679
vt 0.919984 0.360646
vt 0.859920 0.566220
vt 0.865504 0.580513
vt 0.919984 0.542005
vt 0.908373 0.531972
vt 0.801083 0.573882
vt 0.799346 0.589128
vt 0.745475 0.553185
vt 0.736820 0.565857
vt 0.705964 0.508919
vt 0.692394 0.516084
vt 0.874799 0.730408
vt 0.836543 0.782092
vt 0.874799 0.666185
vt 0.837917 0.613598
vt 0.777467 0.593470
vt 0.716828 0.611003
vt 0.676602 0.664341
vt 0.714271 0.612117
vt 0.676347 0.728693
vt 0.714330 0.780544
vt 0.775216 0.801477
vt 0.064470 0.634189
vt 0.282146 0.587364
vt 0.064471 0.275541
vt 0.282146 0.322367
vt 0.299610 0.257977
vt 0.088107 0.188397
vt 0.354401 0.136518
vt 0.354401 0.773215
vt 0.299610 0.651755
vt 0.088104 0.721334
vt 0.007193 0.549604
vt 0.910268 0.816290
vt 0.899745 0.816290
vt 0.899745 0.909371
vt 0.910268 0.909371
vt 0.890354 0.595177
vt 0.889347 0.605335
vt 0.915584 0.603941
vt 0.916621 0.593470
vt 0.863302 0.907978
vt 0.873509 0.907978
vt 0.873509 0.817684
vt 0.863302 0.817684
vt 0.926106 0.603941
vt 0.915584 0.697023
vt 0.926106 0.697023
vt 0.916621 0.707494
vt 0.889347 0.695629
vt 0.890354 0.705787
vt 0.874516 0.807526
vt 0.900783 0.805818
vt 0.900783 0.919843
vt 0.874516 0.918136
vt 0.879140 0.695629
vt 0.879140 0.605335
vn 0.5791 -0.1713 0.7971
vn 0.5159 -0.4791 0.7101
vn 0.9008 -0.1705 0.3993
vn 0.9370 -0.1713 0.3044
vn 0.0000 -0.1713 0.9852
vn -0.5791 -0.1713 0.7971
vn -0.5159 -0.4791 0.7101
vn -0.9370 -0.1713 0.3044
vn -0.9008 -0.1705 0.3993
vn -0.9370 -0.1713 -0.3044
vn -0.9008 -0.1705 -0.3993
vn -0.2288 -0.9211 -0.3150
vn -0.0000 -0.9211 -0.3893
vn 0.2288 -0.9211 -0.3150
vn 0.3703 -0.9211 -0.1203
vn 0.3703 -0.9211 0.1203
vn 0.2288 -0.9211 0.3150
vn 0.0000 -0.9211 0.3893
vn -0.2288 -0.9211 0.3150
vn -0.3703 -0.9211 0.1203
vn -0.3703 -0.9211 -0.1203
vn -0.5791 -0.1713 -0.7971
vn -0.0000 -0.1713 -0.9852
vn -0.5159 -0.4791 -0.7101
vn 0.2280 0.9217 0.3138
vn 0.3689 0.9217 0.1199
vn 0.3689 0.9217 -0.1199
vn 0.2280 0.9217 -0.3138
vn -0.0000 0.9217 -0.3879
vn -0.2280 0.9217 -0.3138
vn -0.3689 0.9217 -0.1199
vn -0.3689 0.9217 0.1199
vn -0.2280 0.9217 0.3138
vn 0.0000 0.9217 0.3879
vn 0.5159 -0.4791 -0.7101
vn -0.0000 -0.4791 -0.8777
vn 0.9370 -0.1713 -0.3044
vn 0.9008 -0.1705 -0.3993
vn 0.0000 1.0000 0.0000
vn -0.5785 0.1769 0.7963
vn -0.5148 0.4827 0.7085
vn -0.8329 0.4827 0.2706
vn -0.9361 0.1769 0.3041
vn -0.5785 0.1769 -0.7963
vn -0.5148 0.4827 -0.7085
vn -0.0000 0.4827 -0.8758
vn -0.0000 0.1769 -0.9842
vn 0.9361 0.1769 -0.3041
vn 0.8329 0.4827 -0.2706
vn 0.8329 0.4827 0.2706
vn 0.9361 0.1769 0.3041
vn -0.9361 0.1769 -0.3041
vn -0.8329 0.4827 -0.2706
vn 0.5785 0.1769 -0.7963
vn 0.5148 0.4827 -0.7085
vn 0.5785 0.1769 0.7963
vn 0.5148 0.4827 0.7085
vn 0.0000 0.4827 0.8758
vn 0.0000 0.1769 0.9842
vn -0.8348 -0.4791 -0.2712
vn -0.8348 -0.4791 0.2712
vn 0.0000 -0.4791 0.8777
vn 0.8348 -0.4791 0.2712
vn 0.8348 -0.4791 -0.2712
vn 0.8970 -0.1703 -0.4080
vn -0.8970 -0.1703 -0.4080
vn -0.8970 -0.1703 0.4080
vn 0.8970 -0.1703 0.4080
vn 0.5791 -0.1713 -0.7971
vn 0.0000 -1.0000 0.0000
vn 0.0000 0.0537 0.9986
vn 0.0000 0.0537 -0.9986
vn -0.9885 -0.1515 0.0000
vn 0.9885 -0.1515 0.0000
usemtl TrashBinMat
s 1
f 7/1/1 34/2/2 66/3/3 8/4/4
f 7/1/1 6/5/5 34/2/2
f 6/6/5 5/7/6 30/8/7
f 4/9/8 63/10/9 30/8/7 5/7/6
f 3/11/10 61/12/11 63/10/9 4/9/8
f 23/13/12 21/14/13 39/15/14 37/16/15 35/17/16 33/18/17 31/19/18 29/20/19 27/21/20 25/22/21
f 2/23/22 1/24/23 24/25/24
f 43/26/25 45/27/26 47/28/27 49/29/28 51/30/29 53/31/30 55/32/31 57/33/32 59/34/33 42/35/34
f 40/36/35 22/37/36 1/24/23
f 9/38/37 8/4/4 66/3/3 67/39/38
f 2/23/22 24/25/24 61/12/11 3/11/10
f 2/40/39 12/41/39 11/42/39 1/43/39
f 9/44/39 19/45/39 18/46/39 8/47/39
f 6/48/39 16/49/39 15/50/39 5/51/39
f 3/52/39 13/53/39 12/41/39 2/40/39
f 10/54/39 20/55/39 19/45/39 9/44/39
f 7/56/39 17/57/39 16/49/39 6/48/39
f 4/58/39 14/59/39 13/53/39 3/52/39
f 1/43/39 11/42/39 20/55/39 10/54/39
f 8/47/39 18/46/39 17/57/39 7/56/39
f 5/51/39 15/50/39 14/59/39 4/58/39
f 20/60/40 60/61/41 58/62/42 19/63/43
f 17/64/44 54/65/45 52/66/46 16/67/47
f 14/68/48 48/69/49 46/70/50 13/71/51
f 18/72/52 56/73/53 54/65/45 17/64/44
f 15/74/54 50/75/55 48/69/49 14/68/48
f 12/76/56 44/77/57 41/78/58 11/79/59
f 19/63/43 58/62/42 56/73/53 18/72/52
f 16/80/47 52/81/46 50/75/55 15/74/54
f 13/71/51 46/70/50 44/77/57 12/76/56
f 11/79/59 41/78/58 60/61/41 20/60/40
f 23/82/12 24/83/24 22/84/36 21/85/13
f 25/86/21 26/87/60 24/83/24 23/82/12
f 27/88/20 28/89/61 26/87/60 25/86/21
f 29/90/19 30/91/7 28/89/61 27/88/20
f 31/92/18 32/93/62 30/91/7 29/90/19
f 33/94/17 34/95/2 32/96/62 31/97/18
f 35/98/16 36/99/63 34/95/2 33/94/17
f 37/100/15 38/101/64 36/99/63 35/98/16
f 39/102/14 40/103/35 38/101/64 37/100/15
f 21/85/13 22/84/36 40/103/35 39/102/14
f 44/104/57 43/26/25 42/35/34 41/105/58
f 46/106/50 45/27/26 43/26/25 44/104/57
f 48/107/49 47/28/27 45/27/26 46/106/50
f 50/108/55 49/29/28 47/28/27 48/107/49
f 52/109/46 51/30/29 49/29/28 50/108/55
f 54/110/45 53/31/30 51/30/29 52/111/46
f 56/112/53 55/32/31 53/31/30 54/110/45
f 58/113/42 57/33/32 55/32/31 56/112/53
f 60/114/41 59/34/33 57/33/32 58/113/42
f 41/105/58 42/35/34 59/34/33 60/114/41
f 24/25/24 1/24/23 22/37/36
f 40/36/35 68/115/65 38/116/64
f 62/117/66 26/118/60 28/119/61 64/120/67
f 24/25/24 26/118/60 62/117/66
f 64/120/67 28/119/61 30/8/7
f 6/6/5 30/8/7 32/121/62
f 34/2/2 6/5/5 32/122/62
f 34/2/2 36/123/63 65/124/68
f 68/115/65 65/124/68 36/123/63 38/116/64
f 1/24/23 10/125/69 40/36/35
f 62/117/66 61/12/11 24/25/24
f 66/126/70 74/127/70 75/128/70 67/129/70
f 40/36/35 10/125/69 67/39/38 68/115/65
f 62/130/71 70/131/71 69/132/71 61/133/71
f 30/8/7 63/10/9 64/120/67
f 65/124/68 66/3/3 34/2/2
f 10/125/69 9/38/37 67/39/38
f 68/134/39 76/135/39 73/136/39 65/137/39
f 61/138/70 69/132/70 71/139/70 63/140/70
f 63/141/72 71/139/72 72/142/72 64/143/72
f 65/144/72 73/136/72 74/127/72 66/145/72
f 67/146/71 75/128/71 76/135/71 68/147/71
f 64/148/39 72/142/39 70/131/39 62/149/39
f 70/131/73 72/142/73 71/139/73 69/132/73
f 75/128/74 74/127/74 73/136/74 76/135/74
