# Blender v2.82 (sub 7) OBJ File: 'Wall Parts.blend'
# www.blender.org
mtllib Wall Parts.mtl
o Wall_Parts
v -0.067751 0.400000 4.200000
v -0.463947 5.131390 4.200000
v -0.067751 0.400000 -2.200000
v -0.463947 5.131390 -2.200000
v -0.463947 0.400000 -2.200000
v -0.067751 5.131390 4.200000
v -0.463947 0.400000 4.200000
v -0.067751 5.131390 -2.200000
v -0.463947 4.854039 4.200000
v -0.067751 0.677350 -2.200000
v -0.067751 0.677350 4.200000
v -0.463947 4.854039 -2.200000
v -0.463947 0.677350 -2.200000
v -0.067751 4.854039 -2.200000
v -0.463947 0.677350 4.200000
v -0.067751 4.854039 4.200000
v -0.639938 -0.000773 -1.823702
v -0.639938 -0.000773 -2.563268
v -0.030313 -0.000773 -1.823702
v -0.030313 -0.000773 -2.563268
v -0.067751 18.960646 -1.823700
v -0.067751 18.960646 -2.563266
v -0.639938 18.960646 -1.823700
v -0.639938 18.960646 -2.563266
v -0.639938 -0.000773 4.876298
v -0.639938 -0.000773 4.136732
v -0.030313 -0.000773 4.876298
v -0.030313 -0.000773 4.136732
v -0.639938 5.338411 4.876298
v -0.639938 5.338411 4.136732
v -0.030313 5.338411 4.136732
v -0.030313 5.338411 4.876298
v -0.639938 9.479937 -1.823702
v -0.639938 9.479937 -2.563268
v -0.030313 9.479937 -1.823702
v -0.030313 9.479937 -2.563268
v -0.269738 0.452716 -0.561324
v -0.269738 4.932715 -0.561324
v -0.067751 0.452716 -0.561324
v -0.067751 4.932715 -0.561324
v -0.269738 0.452716 -0.838675
v -0.269738 4.932715 -0.838674
v -0.067751 4.932715 -0.838674
v -0.067751 0.452716 -0.838675
v -0.067752 0.452716 1.161324
v -0.067752 4.932715 1.161324
v -0.269739 0.452716 1.161324
v -0.269739 4.932715 1.161324
v -0.067752 0.452716 1.438675
v -0.067752 4.932715 1.438675
v -0.269739 4.932715 1.438675
v -0.269739 0.452716 1.438675
v -0.269738 4.932714 3.161325
v -0.269738 0.452715 3.161324
v -0.067751 4.932714 3.161325
v -0.067751 0.452715 3.161324
v -0.269738 4.932714 3.438675
v -0.269738 0.452715 3.438674
v -0.067751 0.452715 3.438674
v -0.067751 4.932714 3.438675
vt 0.002617 0.997384
vt 0.002616 0.002617
vt 0.062653 0.002617
vt 0.062655 0.997384
vt 0.559093 0.997716
vt 0.515955 0.997716
vt 0.515955 0.002283
vt 0.559094 0.002283
vt 0.620717 0.002283
vt 0.663855 0.002284
vt 0.663854 0.997716
vt 0.620716 0.997716
vt 0.725477 0.997716
vt 0.663854 0.997716
vt 0.663855 0.002284
vt 0.725477 0.002284
vt 0.200290 0.997384
vt 0.200290 0.002616
vt 0.277889 0.002616
vt 0.277889 0.997383
vt 0.559093 0.997716
vt 0.515955 0.997716
vt 0.515955 0.002283
vt 0.559094 0.002283
vt 0.140253 0.002616
vt 0.140253 0.997383
vt 0.620717 0.002283
vt 0.620716 0.997716
vt 0.725477 0.997716
vt 0.725477 0.002284
vt 0.140253 0.997383
vt 0.140253 0.002616
vt 0.200290 0.002616
vt 0.200290 0.997384
vt 0.002617 0.997384
vt 0.002616 0.002617
vt 0.062653 0.002617
vt 0.062655 0.997384
vt 0.277889 0.002616
vt 0.277889 0.997383
vt 0.814764 0.422973
vt 0.814764 0.018179
vt 0.858145 0.018179
vt 0.858145 0.422973
vt 0.758693 0.422973
vt 0.758693 0.018179
vt 0.914216 0.018179
vt 0.914215 0.422973
vt 0.957597 0.018179
vt 0.957596 0.422973
vt 0.503644 0.997698
vt 0.458765 0.997698
vt 0.458765 0.002302
vt 0.503644 0.002302
vt 0.352262 0.997698
vt 0.290639 0.997698
vt 0.290639 0.002302
vt 0.352263 0.002302
vt 0.397142 0.002302
vt 0.397141 0.997698
vt 0.503644 0.997698
vt 0.458765 0.997698
vt 0.458765 0.002302
vt 0.503644 0.002302
vt 0.352262 0.997698
vt 0.290639 0.997698
vt 0.290639 0.002302
vt 0.352263 0.002302
vt 0.397142 0.002302
vt 0.397141 0.997698
vt 0.503644 0.997698
vt 0.458765 0.997698
vt 0.458765 0.002302
vt 0.503644 0.002302
vt 0.352262 0.997698
vt 0.290639 0.997698
vt 0.290639 0.002302
vt 0.352263 0.002302
vt 0.397142 0.002302
vt 0.397141 0.997698
vn 0.0000 0.0000 1.0000
vn 1.0000 0.0000 0.0000
vn -1.0000 0.0000 0.0000
vn 0.0000 -1.0000 0.0000
vn 0.0000 1.0000 0.0000
vn 0.0000 0.0000 -1.0000
vn 1.0000 0.0039 0.0000
usemtl WallPartsMat
s off
f 19/1/1 35/2/1 33/3/1 17/4/1
f 3/5/2 10/6/2 11/7/2 1/8/2
f 7/9/3 15/10/3 13/11/3 5/12/3
f 1/8/4 7/9/4 5/12/4 3/5/4
f 8/13/5 4/14/5 2/15/5 6/16/5
f 20/17/2 36/18/2 35/19/2 19/20/2
f 14/21/2 8/22/2 6/23/2 16/24/2
f 17/4/3 33/3/3 34/25/3 18/26/3
f 9/27/3 2/15/3 4/14/3 12/28/3
f 16/24/4 9/27/4 12/28/4 14/21/4
f 18/26/6 34/25/6 36/18/6 20/17/6
f 10/29/5 13/11/5 15/10/5 11/30/5
f 23/31/1 33/32/1 35/33/1 21/34/1
f 22/35/6 36/36/6 34/37/6 24/38/6
f 24/38/3 34/37/3 33/32/3 23/31/3
f 21/34/7 35/33/7 36/39/7 22/40/7
f 27/41/1 32/42/1 29/43/1 25/44/1
f 28/45/2 31/46/2 32/42/2 27/41/2
f 25/44/3 29/43/3 30/47/3 26/48/3
f 26/48/6 30/47/6 31/49/6 28/50/6
f 40/51/1 38/52/1 37/53/1 39/54/1
f 43/55/2 40/56/2 39/57/2 44/58/2
f 41/59/3 37/53/3 38/52/3 42/60/3
f 44/58/6 41/59/6 42/60/6 43/55/6
f 48/61/6 46/62/6 45/63/6 47/64/6
f 51/65/3 48/66/3 47/67/3 52/68/3
f 49/69/2 45/63/2 46/62/2 50/70/2
f 52/68/1 49/69/1 50/70/1 51/65/1
f 56/71/6 54/72/6 53/73/6 55/74/6
f 59/75/2 56/76/2 55/77/2 60/78/2
f 57/79/3 53/73/3 54/72/3 58/80/3
f 60/78/1 57/79/1 58/80/1 59/75/1
